<?xml version="1.0" encoding="utf-8"?>
<!-- Generator: Adobe Illustrator 19.1.0, SVG Export Plug-In . SVG Version: 6.00 Build 0)  -->
<svg version="1.1" id="Layer_1" xmlns="http://www.w3.org/2000/svg" xmlns:xlink="http://www.w3.org/1999/xlink" x="0px" y="0px"
	 viewBox="0 0 1400 980" enable-background="new 0 0 1400 980" xml:space="preserve">
<g>
	<path fill="#414042" d="M368.9,370.3H152.7l-73.4,57.4c-8.5,6.7-13.5,16.8-13.5,27.6l0,0h389.9l0,0c0-10.8-5-21-13.5-27.6
		L368.9,370.3z"/>
	<circle fill="#6D6E71" cx="260.8" cy="272.6" r="155.3"/>
	<path fill="#E6E7E8" d="M410.4,288.1c0.5-5.1,0.8-10.3,0.8-15.6c0-83.1-67.3-150.4-150.4-150.4s-150.4,67.3-150.4,150.4
		c0,4.5,0.2,9,0.6,13.4c46.2,10,98.9,15.6,155,15.6C317.8,301.6,366.8,296.8,410.4,288.1z"/>
	<circle fill="#A7A9AC" cx="260.8" cy="272.6" r="138.2"/>
	<radialGradient id="SVGID_1_" cx="260.8236" cy="272.5506" r="121.5185" gradientUnits="userSpaceOnUse">
		<stop  offset="0" style="stop-color:#006493"/>
		<stop  offset="1" style="stop-color:#000000"/>
	</radialGradient>
	<circle fill="url(#SVGID_1_)" cx="260.8" cy="272.6" r="121.5"/>
	<g>
		<path fill="#7FC2EE" d="M150.8,299.2c0-39.5,32.1-71.6,71.6-71.6c19.9,0,38,8.1,50.9,21.3c-12-21.4-34.9-35.9-61.2-35.9
			c-38.7,0-70.1,31.4-70.1,70.1c0,15.3,4.9,29.5,13.2,41C152.3,316.4,150.8,308,150.8,299.2z"/>
		<path fill="#7FC2EE" d="M201.8,369.2c-28-28-28-73.3,0-101.3c14.1-14.1,32.6-21.1,51.1-21c-23.6-6.6-50-0.7-68.6,17.9
			c-27.4,27.4-27.4,71.8,0,99.2c10.8,10.8,24.3,17.4,38.4,19.6C215.1,380.2,208,375.4,201.8,369.2z"/>
		<path fill="#7FC2EE" d="M287.5,382.6c-39.5,0-71.6-32.1-71.6-71.6c0-19.9,8.1-38,21.3-50.9c-21.4,12-35.9,34.9-35.9,61.2
			c0,38.7,31.4,70.1,70.1,70.1c15.3,0,29.5-4.9,41-13.2C304.6,381,296.2,382.6,287.5,382.6z"/>
		<path fill="#7FC2EE" d="M357.5,331.6c-28,28-73.3,28-101.3,0c-14.1-14.1-21.1-32.6-21-51.1c-6.6,23.6-0.7,50,17.9,68.6
			c27.4,27.4,71.8,27.4,99.2,0c10.8-10.8,17.4-24.3,19.6-38.4C368.5,318.3,363.7,325.3,357.5,331.6z"/>
		<path fill="#7FC2EE" d="M370.9,245.9c0,39.5-32.1,71.6-71.6,71.6c-19.9,0-38-8.1-50.9-21.3c12,21.4,34.9,35.9,61.2,35.9
			c38.7,0,70.1-31.4,70.1-70.1c0-15.3-4.9-29.5-13.2-41C369.3,228.7,370.9,237.1,370.9,245.9z"/>
		<path fill="#7FC2EE" d="M319.8,175.9c28,28,28,73.3,0,101.3c-14.1,14.1-32.6,21.1-51.1,21c23.6,6.6,50,0.7,68.6-17.9
			c27.4-27.4,27.4-71.8,0-99.2c-10.8-10.8-24.3-17.4-38.4-19.6C306.6,164.9,313.6,169.7,319.8,175.9z"/>
		<path fill="#7FC2EE" d="M234.2,162.5c39.5,0,71.6,32.1,71.6,71.6c0,19.9-8.1,38-21.3,50.9c21.4-12,35.9-34.9,35.9-61.2
			c0-38.7-31.4-70.1-70.1-70.1c-15.3,0-29.5,4.9-41,13.2C217,164.1,225.4,162.5,234.2,162.5z"/>
		<path fill="#7FC2EE" d="M164.2,213.6c28-28,73.3-28,101.3,0c14.1,14.1,21.1,32.6,21,51.1c6.6-23.6,0.7-50-17.9-68.6
			c-27.4-27.4-71.8-27.4-99.2,0c-10.8,10.8-17.4,24.3-19.6,38.4C153.1,226.8,158,219.8,164.2,213.6z"/>
	</g>
	<g>
		<g>
			<circle fill="#7FC2EE" cx="264.8" cy="119.8" r="10.4"/>
			<path fill="#6D6E71" d="M264.8,131.5c-6.4,0-11.6-5.2-11.6-11.6s5.2-11.6,11.6-11.6s11.6,5.2,11.6,11.6S271.2,131.5,264.8,131.5z
				 M264.8,110.6c-5.1,0-9.2,4.1-9.2,9.2s4.1,9.2,9.2,9.2s9.2-4.1,9.2-9.2S269.9,110.6,264.8,110.6z"/>
		</g>
		<circle fill="#FFFFFF" cx="264.8" cy="117.2" r="6.2"/>
	</g>
	<g>
		<g>
			<circle fill="#7FC2EE" cx="187.9" cy="138.3" r="10.4"/>
			<path fill="#6D6E71" d="M187.9,149.9c-4,0-7.9-2.1-10.1-5.8c-1.6-2.7-2-5.8-1.2-8.8c0.8-3,2.7-5.5,5.4-7.1c2.7-1.6,5.8-2,8.8-1.2
				c3,0.8,5.5,2.7,7.1,5.4c1.6,2.7,2,5.8,1.2,8.8s-2.7,5.5-5.4,7.1C191.9,149.4,189.9,149.9,187.9,149.9z M187.9,129.1
				c-1.6,0-3.2,0.4-4.6,1.2c-2.1,1.2-3.6,3.2-4.3,5.6c-0.6,2.4-0.3,4.9,0.9,7c2.5,4.4,8.2,5.9,12.6,3.4c2.1-1.2,3.6-3.2,4.3-5.6
				c0.6-2.4,0.3-4.9-0.9-7c-1.2-2.1-3.2-3.6-5.6-4.3C189.5,129.2,188.7,129.1,187.9,129.1z"/>
		</g>
		<circle fill="#FFFFFF" cx="186.6" cy="136.1" r="6.2"/>
	</g>
	<g>
		<g>
			<circle fill="#7FC2EE" cx="130.6" cy="192.7" r="10.4"/>
			<path fill="#6D6E71" d="M130.5,204.4c-2,0-4-0.5-5.8-1.6c-2.7-1.6-4.6-4.1-5.4-7.1s-0.4-6.1,1.2-8.8c1.6-2.7,4.1-4.6,7.1-5.4
				c3-0.8,6.1-0.4,8.8,1.2c2.7,1.6,4.6,4.1,5.4,7.1s0.4,6.1-1.2,8.8c-1.6,2.7-4.1,4.6-7.1,5.4C132.6,204.2,131.5,204.4,130.5,204.4z
				 M130.6,183.5c-0.8,0-1.6,0.1-2.4,0.3c-2.4,0.6-4.4,2.2-5.6,4.3c-1.2,2.1-1.6,4.6-0.9,7c0.6,2.4,2.2,4.4,4.3,5.6
				c2.1,1.2,4.6,1.6,7,0.9c2.4-0.6,4.4-2.2,5.6-4.3c1.2-2.1,1.6-4.6,0.9-7c-0.6-2.4-2.2-4.4-4.3-5.6
				C133.7,184,132.2,183.5,130.6,183.5z"/>
		</g>
		<circle fill="#FFFFFF" cx="128.3" cy="191.4" r="6.2"/>
	</g>
	<g>
		<g>
			<circle fill="#7FC2EE" cx="108.1" cy="268.6" r="10.4"/>
			<path fill="#6D6E71" d="M108.1,280.2c-6.4,0-11.6-5.2-11.6-11.6s5.2-11.6,11.6-11.6s11.6,5.2,11.6,11.6S114.5,280.2,108.1,280.2z
				 M108.1,259.4c-5.1,0-9.2,4.1-9.2,9.2s4.1,9.2,9.2,9.2s9.2-4.1,9.2-9.2S113.2,259.4,108.1,259.4z"/>
		</g>
		<circle fill="#FFFFFF" cx="105.5" cy="268.6" r="6.2"/>
	</g>
	<g>
		<g>
			<circle fill="#7FC2EE" cx="126.6" cy="345.5" r="10.4"/>
			<path fill="#6D6E71" d="M126.6,357.1c-1,0-2-0.1-3-0.4c-3-0.8-5.5-2.7-7.1-5.4c-1.6-2.7-2-5.8-1.2-8.8c0.8-3,2.7-5.5,5.4-7.1l0,0
				c2.7-1.6,5.8-2,8.8-1.2s5.5,2.7,7.1,5.4c1.6,2.7,2,5.8,1.2,8.8c-0.8,3-2.7,5.5-5.4,7.1C130.6,356.6,128.6,357.1,126.6,357.1z
				 M126.6,336.3c-1.6,0-3.2,0.4-4.6,1.2l0,0c-2.1,1.2-3.6,3.2-4.3,5.6c-0.6,2.4-0.3,4.9,0.9,7s3.2,3.6,5.6,4.3
				c2.4,0.6,4.9,0.3,7-0.9c2.1-1.2,3.6-3.2,4.3-5.6c0.6-2.4,0.3-4.9-0.9-7s-3.2-3.6-5.6-4.3C128.2,336.4,127.4,336.3,126.6,336.3z"
				/>
		</g>
		<circle fill="#FFFFFF" cx="124.3" cy="346.8" r="6.2"/>
	</g>
	<g>
		<g>
			<circle fill="#7FC2EE" cx="181" cy="402.8" r="10.4"/>
			<path fill="#6D6E71" d="M181,414.4c-2,0-4-0.5-5.8-1.6c-2.7-1.6-4.6-4.1-5.4-7.1s-0.4-6.1,1.2-8.8c1.6-2.7,4.1-4.6,7.1-5.4
				c3-0.8,6.1-0.4,8.8,1.2c2.7,1.6,4.6,4.1,5.4,7.1c0.8,3,0.4,6.1-1.2,8.8C188.9,412.4,185,414.4,181,414.4z M181,393.6
				c-0.8,0-1.6,0.1-2.4,0.3c-2.4,0.6-4.4,2.2-5.6,4.3c-1.2,2.1-1.6,4.6-0.9,7c0.6,2.4,2.2,4.4,4.3,5.6c4.4,2.5,10,1,12.6-3.4
				c1.2-2.1,1.6-4.6,0.9-7c-0.6-2.4-2.2-4.4-4.3-5.6C184.2,394,182.6,393.6,181,393.6z"/>
		</g>
		<circle fill="#FFFFFF" cx="179.7" cy="405.1" r="6.2"/>
	</g>
	<g>
		<g>
			<circle fill="#7FC2EE" cx="256.8" cy="425.3" r="10.4"/>
			<path fill="#6D6E71" d="M256.8,436.9c-6.4,0-11.6-5.2-11.6-11.6s5.2-11.6,11.6-11.6c6.4,0,11.6,5.2,11.6,11.6
				S263.3,436.9,256.8,436.9z M256.8,416.1c-5.1,0-9.2,4.1-9.2,9.2s4.1,9.2,9.2,9.2c5.1,0,9.2-4.1,9.2-9.2S261.9,416.1,256.8,416.1z
				"/>
		</g>
		<circle fill="#FFFFFF" cx="256.8" cy="427.9" r="6.2"/>
	</g>
	<g>
		<g>
			<circle fill="#7FC2EE" cx="333.7" cy="406.8" r="10.4"/>
			<path fill="#6D6E71" d="M333.8,418.4c-1,0-2-0.1-3-0.4c-3-0.8-5.5-2.7-7.1-5.4l0,0c-3.2-5.6-1.3-12.7,4.3-15.9
				c5.5-3.2,12.7-1.3,15.9,4.3c1.6,2.7,2,5.8,1.2,8.8c-0.8,3-2.7,5.5-5.4,7.1C337.8,417.9,335.8,418.4,333.8,418.4z M325.8,411.4
				c1.2,2.1,3.2,3.6,5.6,4.3c2.4,0.6,4.9,0.3,7-0.9c2.1-1.2,3.6-3.2,4.3-5.6c0.6-2.4,0.3-4.9-0.9-7c-2.5-4.4-8.2-5.9-12.6-3.4
				C324.8,401.4,323.2,407,325.8,411.4L325.8,411.4z"/>
		</g>
		<circle fill="#FFFFFF" cx="335" cy="409.1" r="6.2"/>
	</g>
	<g>
		<g>
			<circle fill="#7FC2EE" cx="391.1" cy="352.4" r="10.4"/>
			<path fill="#6D6E71" d="M391.1,364c-2,0-4-0.5-5.8-1.6c-2.7-1.6-4.6-4.1-5.4-7.1s-0.4-6.1,1.2-8.8c1.6-2.7,4.1-4.6,7.1-5.4
				c3-0.8,6.1-0.4,8.8,1.2s4.6,4.1,5.4,7.1s0.4,6.1-1.2,8.8s-4.1,4.6-7.1,5.4C393.1,363.9,392.1,364,391.1,364z M391.1,343.2
				c-0.8,0-1.6,0.1-2.4,0.3c-2.4,0.6-4.4,2.2-5.6,4.3s-1.6,4.6-0.9,7c0.6,2.4,2.2,4.4,4.3,5.6l0,0c2.1,1.2,4.6,1.6,7,0.9
				c2.4-0.6,4.4-2.2,5.6-4.3c1.2-2.1,1.6-4.6,0.9-7c-0.6-2.4-2.2-4.4-4.3-5.6C394.3,343.6,392.7,343.2,391.1,343.2z"/>
		</g>
		<circle fill="#FFFFFF" cx="393.3" cy="353.7" r="6.2"/>
	</g>
	<g>
		<g>
			<circle fill="#7FC2EE" cx="413.5" cy="276.5" r="10.4"/>
			<path fill="#6D6E71" d="M413.5,288.2c-6.4,0-11.6-5.2-11.6-11.6s5.2-11.6,11.6-11.6s11.6,5.2,11.6,11.6S420,288.2,413.5,288.2z
				 M413.5,267.3c-5.1,0-9.2,4.1-9.2,9.2s4.1,9.2,9.2,9.2s9.2-4.1,9.2-9.2S418.6,267.3,413.5,267.3z"/>
		</g>
		<circle fill="#FFFFFF" cx="416.1" cy="276.5" r="6.2"/>
	</g>
	<g>
		<g>
			<circle fill="#7FC2EE" cx="395.1" cy="199.6" r="10.4"/>
			<path fill="#6D6E71" d="M395.1,211.3c-1,0-2-0.1-3-0.4c-3-0.8-5.5-2.7-7.1-5.4c-1.6-2.7-2-5.8-1.2-8.8c0.8-3,2.7-5.5,5.4-7.1
				c2.7-1.6,5.8-2,8.8-1.2c3,0.8,5.5,2.7,7.1,5.4c1.6,2.7,2,5.8,1.2,8.8c-0.8,3-2.7,5.5-5.4,7.1l0,0
				C399.1,210.7,397.1,211.3,395.1,211.3z M395.1,190.4c-1.6,0-3.2,0.4-4.6,1.2c-2.1,1.2-3.6,3.2-4.3,5.6c-0.6,2.4-0.3,4.9,0.9,7
				c1.2,2.1,3.2,3.6,5.6,4.3c2.4,0.6,4.8,0.3,7-0.9l0,0c2.1-1.2,3.6-3.2,4.3-5.6c0.6-2.4,0.3-4.9-0.9-7s-3.2-3.6-5.6-4.3
				C396.7,190.5,395.9,190.4,395.1,190.4z"/>
		</g>
		<circle fill="#FFFFFF" cx="397.3" cy="198.3" r="6.2"/>
	</g>
	<g>
		<g>
			<circle fill="#7FC2EE" cx="340.6" cy="142.3" r="10.4"/>
			<path fill="#6D6E71" d="M340.6,153.9c-2,0-4-0.5-5.8-1.6c-2.7-1.6-4.6-4.1-5.4-7.1s-0.4-6.1,1.2-8.8s4.1-4.6,7.1-5.4
				c3-0.8,6.1-0.4,8.8,1.2s4.6,4.1,5.4,7.1s0.4,6.1-1.2,8.8l0,0C348.5,151.8,344.6,153.9,340.6,153.9z M340.6,133.1
				c-0.8,0-1.6,0.1-2.4,0.3c-2.4,0.6-4.4,2.2-5.6,4.3c-1.2,2.1-1.6,4.6-0.9,7c0.6,2.4,2.2,4.4,4.3,5.6c4.4,2.5,10,1,12.6-3.4l0,0
				c1.2-2.1,1.6-4.6,0.9-7c-0.6-2.4-2.2-4.4-4.3-5.6C343.8,133.5,342.2,133.1,340.6,133.1z"/>
		</g>
		<circle fill="#FFFFFF" cx="341.9" cy="140" r="6.2"/>
	</g>
</g>
<g>
	<path fill="#6F0050" d="M822.5,370.3H606.2l-73.4,57.4c-8.5,6.7-13.5,16.8-13.5,27.6l0,0h389.9l0,0c0-10.8-5-21-13.5-27.6
		L822.5,370.3z"/>
	<circle fill="#4D0057" cx="714.4" cy="272.6" r="150.4"/>
	<path fill="#B910DD" d="M714.4,122.1c-81.6,0-148.1,65-150.3,146.1c37.4,23.5,93.4,38.5,156,38.5c56.6,0,107.8-12.2,144.7-32
		c0-0.7,0-1.5,0-2.2C864.8,189.5,797.4,122.1,714.4,122.1z"/>
	<circle fill="#7E0093" cx="714.4" cy="272.6" r="138.2"/>
	<radialGradient id="SVGID_2_" cx="714.3577" cy="272.5506" r="121.5185" gradientUnits="userSpaceOnUse">
		<stop  offset="0" style="stop-color:#3FFF4C"/>
		<stop  offset="1" style="stop-color:#1F9400"/>
	</radialGradient>
	<circle fill="url(#SVGID_2_)" cx="714.4" cy="272.6" r="121.5"/>
	<g>
		<g>
			<g>
				<g>
					<path fill="#FFFFFF" d="M699,389c-13-5-25-15-39-13c-13-4-18-16-26-26c-4-5-11-6-16-10c-3-3-5-7-6-11c-3-13-3-24-12-35
						c-3-4-3-10-2-15c1-7,4-14,5-21s-2-13-1-19c1-2,1-5,2-7c5-8,11-14,16-21c4-5,4-12,7-17c4-6,11-10,19-12c6-2,12-5,16-9
						c4-5,9-11,16-12c15,0,30,1,44-6c2-1,5,0,7,1c11,4,20,11,31,13c4,0,8,0,12,1c2,1,5,2,7,4c10,12,17,25,32,31c7,11,6,24,11,36
						c1,1,2,3,3,5c7,7,8,17,5,25c-3,6-3,13-5,19c3,9,3,19-3,27c-4,5-8,9-12,14s-4,12-7,18c-5,8-14,13-24,16c-7,3-12,9-18,14
						c-10,9-24,4-36,5c-6,1-12,4-18,6C704,391,702,390,699,389L699,389z M675,375c10,5,18,14,30,13c8-2,14-6,22-5c7,0,15,0,22,0
						c4,0,7-3,10-5c8-10,20-14,31-19c4-2,9-5,10-10c3-13,12-21,20-31c3-4,6-9,5-14c-4-13,1-24,4-37c2-10-4-16-8-24c-5-11-3-23-9-33
						c-2-3-6-5-10-7c-8-5-12-12-17-20c-4-5-9-10-15-11c-15,0-27-8-40-14c-2-1-5-1-7-1c-6,2-11,5-17,6c-12,1-26-5-36,4
						c-9,10-20,13-31,19c-4,3-8,5-10,10c-2,6-3,13-8,18c-7,7-15,14-17,24c-1,6,2,12,1,19c-2,10-6,19-6,29c1,4,3,8,6,11c1,2,2,3,3,5
						c2,7,3,14,5,21c0,4,1,8,4,12c5,6,12,8,17,13c6,7,10,15,16,21C657,375,667,373,675,375L675,375z"/>
				</g>
			</g>
			<g>
				<g>
					<path fill="#FFFFFF" d="M701,375c-1,0-3-1-4-1c-7-3-12-8-20-10c-3,0-6,0-9,0c-7,0-12-6-16-11c-6-8-11-17-21-19c-8-8-7-20-10-31
						c-2-4-5-7-7-11c-8-12,4-25,3-38c-8-15,9-26,17-38c2-3,1-8,2-11c1-1,2-3,3-5c7-6,17-8,25-12c5-3,7-8,11-12c2-1,5-2,7-2
						c13,0,27,1,39-5c2-1,5,0,8,1c9,3,16,10,26,12c4,1,9-1,13,1c3,3,7,6,9,9c3,6,6,11,11,15c6,3,12,6,15,12c3,8,3,18,6,26
						c2,4,6,7,8,11c1,2,1,5,1,7c-2,8-4,15-6,23c-1,6,3,10,2,16c-2,9-9,16-16,22c-3,3-4,7-4,11c-3,14-18,17-29,22c-5,3-7,9-12,12
						c-2,1-4,2-6,2c-13,1-27-2-39,5C706,377,703,376,701,375L701,375z M679,363c6,1,10,5,15,8s12,5,17,2c2-2,4-3,7-4c11-2,22,4,33-1
						c7-10,18-16,30-19c2-1,4-2,6-4c5-6,3-15,9-21c5-4,9-9,13-14c2-2,3-5,3-8c-5-14,4-27,4-41c0-6-6-9-8-14c-4-9-2-20-7-29
						c-1-2-2-3-4-4c-4-2-9-3-12-7c-6-8-11-18-20-23c-13,3-24-7-35-12c-3-1-6-2-8-1c-12,8-26,3-39,4c-2,0-3,1-5,2c-5,4-7,9-12,12
						c-6,3-12,4-18,8c-1,1-3,0-4,1c-2,2-3,4-4,6c-2,5-3,10-5,14c-6,9-19,16-18,28c1,4,3,8,2,12c-2,9-7,17-6,26c1,5,5,10,8,14
						c3,7,3,15,4,23c1,4,3,8,7,10c5,3,10,5,14,10c5,8,9,17,18,19C669,362,674,361,679,363L679,363z"/>
				</g>
			</g>
			<g>
				<g>
					<path fill="#FFFFFF" d="M703,362c-11-4-20-13-32-11c-11-3-12-17-21-23c-3-1-7-1-9-3c-8-8-5-20-9-30c-1-3-4-4-6-7
						c-3-6-1-12,1-18c3-6,4-13,1-19c-1-4,0-8,2-11c7-9,17-15,17-27c0-1,1-2,2-3c7-7,18-7,25-13c3-3,5-7,9-9c8-3,16,1,24,0
						c3-1,6-2,9-3c10-6,20,4,29,8c5,2,11-1,16,2c4,3,8,6,10,11c1,5,4,8,8,11c5,2,11,3,13,10c3,11,1,23,11,30c3,10-3,19-5,28
						c-1,4,3,8,3,12c0,6-5,12-9,16c-4,3-8,6-8,10c-1,6-3,11-8,15c-10,6-22,7-27,18c-1,1-5,2-7,2c-7,1-14-2-21-1c-5,1-10,5-15,6
						C705,363,704,362,703,362L703,362z M727,185c-2,0-4,0-6,0c-4,1-8,4-12,5c-8,0-16-4-24-1c-4,2-6,7-9,10c-1,1-3,2-5,3
						c-8,2-19,4-22,13c0,3-1,7-3,10c-5,8-16,12-15,22c0,4,1,8,1,12c0,9-10,17-5,27c2,3,7,6,8,10c1,8,0,17,5,24c2,4,9,4,13,8
						c5,6,7,15,14,19s14,1,21,5c6,3,10,9,17,9c5-1,10-5,15-6c7,0,13,2,20,2c2,0,4-1,6-2c3-2,4-7,7-9c9-5,19-6,26-13c1-2,1-4,1-6
						c2-11,14-15,18-25c1-4-1-8-2-12c0-1,0-3,0-4c4-10,11-24,0-33c-1-1-1-3-2-4c-3-8,1-20-7-26c-4-2-8-3-11-6c-6-7-9-17-17-20
						c-4-2-10,0-14-2C739,193,733,188,727,185L727,185z"/>
				</g>
			</g>
			<g>
				<g>
					<path fill="#FFFFFF" d="M705,349c-5-2-9-5-13-8c-5-4-10-1-15-2c-8-2-10-12-15-18c-2-2-5-3-8-4c-7-2-7-13-7-20c0-5-5-8-8-12
						c-2-2-1-4-1-6c1-5,3-9,5-13c3-6-3-11-1-17c1-8,9-11,14-17c2-2,1-5,1-8c2-10,14-9,22-13c3-2,4-7,6-9c8-5,18,1,27-2c2,0,5-2,7-4
						c1,0,2,0,3,0c9,2,14,10,22,10c4,0,10-1,13,3c6,8,9,19,20,19c3,4,4,9,4,15c0,7,4,12,9,17c1,1,1,2,1,3c-2,11-9,20-3,31
						c0,2-1,4-2,6c-4,5-9,8-13,13c-2,2-1,5-1,8c-2,10-14,9-22,13c-4,3-5,9-9,10c-8,3-16-1-24,0c-3,1-4,4-7,5
						C708,349,707,349,705,349L705,349z M688,337c7,3,12,10,20,10c8-8,18-3,28-3c2,0,4-1,5-2c2-3,4-7,7-9c7-3,15-4,21-9
						c-3-12,12-17,16-27c0-1,0-3,0-4c-1-3-3-5-2-9c2-9,11-20,0-28c-5-3-3-11-3-17c-1-4-2-8-6-9c-10-1-12-12-17-19c-2-2-4-3-6-3
						c-11,3-18-7-28-10c-1,0-2,0-3,0c-2,0-3,2-4,3c-7,5-15-1-23,0c-2,0-3,1-5,2c-3,2-3,7-7,9c-7,3-15,3-20,8c-2,3,0,8-3,12
						c-4,5-9,8-13,13c-1,1-2,3-2,5c1,4,4,7,3,11c-1,8-11,17-4,24c3,2,5,4,6,7c2,7-1,16,5,22c11,3,14,14,21,22c2,1,4,1,7,0
						C683,335,686,336,688,337L688,337z"/>
				</g>
			</g>
			<g>
				<g>
					<path fill="#FFFFFF" d="M707,335c-5-2-9-6-14-9c-4-1-8,2-11,1c-6-3-7-11-10-16c-2-2-6-1-9-3c-6-3-3-12-4-19c-1-3-4-4-6-6
						s-1-5-1-7c1-5,4-8,5-13c1-4-4-6-3-10c2-5,6-8,11-11s1-9,4-13c4-6,11-4,17-7c4-2,3-7,6-9c6-2,12,3,19,2c1,0,3-1,4-2
						c2-4,7-3,10-2c4,3,7,6,11,8c4,1,8-2,11,0c7,5,8,19,19,17c3,5,3,11,3,17c0,5,7,6,8,11c1,7-7,13-5,20c0,2,3,4,3,6s-1,3-2,5
						c-3,3-5,6-9,8c-5,3-1,9-4,13c-5,5-12,4-18,8c-2,1-3,7-6,8c-8,2-18-6-25,3C710,335,708,335,707,335L707,335z M692,324
						c6,3,10,9,18,9c6-9,16,0,24-2c3-1,2-5,4-7c1-1,1-2,2-2c6-2,15-1,19-8c0-1-2-4-1-6c3-7,21-12,11-22c0-1,0-2,0-3c2-6,7-10,6-17
						c-1-4-6-4-7-8c0-5,0-9,0-14c-1-4-5-5-9-7c-3-1-4-5-6-9c-2-3-4-7-8-8c-7,5-14-3-20-7c-4-3-7,0-10,3c-1,1-2,1-3,1c-7-1-14-5-20-1
						c-2,10-14,8-21,13c-2,2,0,5-1,8c-2,7-16,12-12,22c3,7-5,13-4,20c0,2,3,3,5,5c4,6,0,14,3,21c2,2,5,2,8,2c2,1,3,3,4,5s1,3,2,5
						c3,5,7,11,13,6C690,323,691,324,692,324L692,324z"/>
				</g>
			</g>
			<g>
				<g>
					<path fill="#FFFFFF" d="M709,322c-5-2-8-6-12-9c-3-1-5,3-8,2c-5-3-5-10-8-14c-2-1-6,1-8-1c-3-5,0-11-1-16c-1-3-6-2-7-5
						c-1-6,6-10,6-16c0-1-2-2-3-3c-2-6,7-9,11-13c1-1,0-4,0-6c-1-7,10-6,15-7c2-1,0-4,1-6c4-5,12,1,18,0c2,0,3-5,6-5c5,1,9,6,13,9
						c2,1,3-2,5-2c8-1,6,10,11,14c2,1,6-1,8,1c3,5,0,11,1,16c1,3,6,2,7,5c1,7-10,14-3,20c0,7-9,9-12,14c0,1,2,3,2,5c-2,6-11,4-16,7
						c-2,1-1,6-3,7c-6,2-11-3-17-2C712,318,713,323,709,322L709,322z M697,311c4,3,7,7,11,9c1,0,2-1,3-3c2-1,4-3,7-2c4,2,8,4,12,3
						c3-2-1-6,3-8c5-2,11,0,14-3c2-2-1-6,1-9c3-4,10-4,11-11c-7-5,2-12,3-19c0-1,0-2-3-2c-2,0-3-2-4-3c-1-5,3-11,0-15c-3-3-9,1-10-5
						c-1-4-2-8-5-11h-2c-1,1-1,3-3,3c-6-1-9-7-15-10c-3,3-5,7-10,5c-3-2-8-4-11-3c-2,2-1,6-3,8c-5,2-11,0-15,3c-1,1,0,4,0,6
						c0,6-10,7-11,12c-1,1,0,3,3,5c1,1,0,4-1,6c-2,4-7,7-4,12c1,1,3,1,4,1c4,5-2,13,3,18c10-2,8,11,14,15C691,314,694,310,697,311
						L697,311z"/>
				</g>
			</g>
			<g>
				<g>
					<path fill="#FFFFFF" d="M696,304c-2-4-4-7-6-12c0-1-2,0-4,1c-1,0-2-1-2-1c-1-4,1-8,1-12c-1-2-4,0-5-1c-4-5,4-8,5-13
						c0-2-5-2-5-5c2-3,7-5,10-7c2-2-2-4-2-6c3-5,9,0,13-3c1-2-1-5,1-6c5-2,11,6,14,1c0-1,0-2,0-2c5-3,8,4,11,7c2,1,3-2,4-3
						c5-1,4,8,7,11c1,1,4-1,5,0c5,2,1,8,1,13c2,0,3,0,5,0c0,0,1,1,1,2c-1,4-5,7-6,11c0,1,3,2,4,3c1,4-6,7-10,9c-2,2,3,4,2,5
						c-1,5-9,1-13,5c-1,1,1,3,1,4l-1,1c-4,0-8-1-12-3c0,0-2,1-2,2s0,2,0,2c-6,4-8-6-13-7C698,300,698,304,696,304L696,304z M690,289
						c3,3,2,7,4,10c1,1,2,3,3,2s1-2,2-3c1,0,1,0,2,0c4,2,5,7,10,8c0-2,0-4,2-5c4,0,8,5,12,4c0-1-1-4,0-5c3-4,7-1,11-2c1,0,3,0,2-2
						s-3-3-2-5c3-3,9-2,10-7c0-1-3-1-4-2c-1-4,3-7,6-10c0-1,0-2,0-3c-1,0-3,0-4,0c-4-3,0-9,0-14c-2,0-5,2-7,0c-3-3-1-9-5-11
						c0,2-2,3-4,3c-4-1-5-8-9-8c-2,1-1,5-4,5c-4-1-7-4-11-4l-1,1c1,1,2,3,1,4c-3,4-7,1-11,2c-1,0-3,0-2,2s3,3,2,5c-3,3-9,3-11,7
						c0,1,2,1,3,1c5,4-3,9-5,14c1,0,2,0,3,0c6,2,0,10,2,14C686,291,688,288,690,289L690,289z"/>
				</g>
			</g>
			<g>
				<g>
					<path fill="#FFFFFF" d="M712,295c-3-2-4-5-6-8c-1,2-2,5-3,4c-4-1-2-6-2-9c-2,1-3,3-4,2c-4,0-1-6,1-9c-2,0-3,1-5,1l-1-1
						c1-3,5-4,5-7c1-2-4,0-3-2c0-3,5-4,8-5c-2-1-4-2-4-3c1-4,7-2,10-1c-1-1-2-3-2-4c2-3,7,1,9,3c2-2,1-4,1-6c4,1,5,5,7,8
						c1-2,1-4,3-5c1,3,3,6,2,10c2,0,3-4,4-3c2,3-1,7,0,10c0,1,4-3,4,0c1,3-4,4-4,7c-1,2,5-1,3,3c-1,2-5,3-8,4c1,1,3,2,3,3
						c-1,4-7,1-9,1c-1,1,0,3,2,4c-3,3-7-2-10-3C712,291,714,293,712,295L712,295z M706,285c3,2,2,6,5,8c1-2-1-5,1-6c3,0,4,5,8,5
						c-1-1-2-3-2-4c3-4,7,1,10,0c-1-2-4-2-3-5c2-3,6,0,8-3c-2,0-5-1-4-2c0-3,4-5,6-7c-2,1-3,1-5,1l-1-1c1-3,2-5,3-8c-2,0-4,3-5,2
						c-1-3,1-6-1-9c-1,1-1,3-2,4c-4,0-3-6-6-8c0,2,0,5-2,6c-3,0-4-4-7-5c1,1,1,3,1,5c-3,0-6,1-9-1c1,2,4,2,3,5c-2,3-6,0-8,3
						c1,0,3,0,4,1s0,2-1,3c-2,1-4,3-5,5c1-1,3-1,4-1c1,1,1,2,1,3c-1,2-3,3-2,6c1-2,4-3,5-2c1,3-1,7,1,9C704,289,703,285,706,285
						L706,285z"/>
				</g>
			</g>
		</g>
	</g>
	<g>
		<polygon fill="#7E0093" points="697.8,149.9 688.5,103.6 740.2,103.6 730.9,149.9 		"/>
		<polygon fill="#B910DD" points="727.9,146.2 700.8,146.2 693,107.2 735.7,107.2 		"/>
	</g>
	<g>
		<polygon fill="#7E0093" points="591.7,289.1 545.4,298.4 545.4,246.7 591.7,256 		"/>
		<polygon fill="#B910DD" points="588.1,259 588.1,286.1 549,293.9 549,251.2 		"/>
	</g>
	<g>
		<polygon fill="#7E0093" points="730.9,395.2 740.2,441.5 688.5,441.5 697.8,395.2 		"/>
		<polygon fill="#B910DD" points="700.8,398.9 727.9,398.9 735.7,437.9 693,437.9 		"/>
	</g>
	<g>
		<polygon fill="#7E0093" points="837,256 883.4,246.7 883.4,298.4 837,289.1 		"/>
		<polygon fill="#B910DD" points="840.7,286.1 840.7,259 879.7,251.2 879.7,293.9 		"/>
	</g>
</g>
<g>
	<path d="M822.5,797.9H606.2l-73.4,57.4c-8.5,6.7-13.5,16.8-13.5,27.6l0,0h389.9l0,0c0-10.8-5-21-13.5-27.6L822.5,797.9z"/>
	<path fill="#A70000" d="M697.4,584.1c-8.4,0-15.3-6.8-15.3-15.2l-0.1-20.4c0-4.1,1.6-7.9,4.4-10.8c2.9-2.9,6.7-4.5,10.8-4.5
		l34.1-0.2c0,0,0,0,0.1,0c4.1,0,7.9,1.6,10.8,4.4c2.9,2.9,4.5,6.7,4.5,10.8l0.1,20.4c0,8.4-6.8,15.3-15.2,15.4h0L697.4,584.1
		C697.5,584.1,697.4,584.1,697.4,584.1z M731.4,542C731.4,542,731.4,542,731.4,542l-34.1,0.2c-1.7,0-3.2,0.7-4.4,1.9
		c-1.2,1.2-1.8,2.8-1.8,4.5l0.1,20.4c0,3.5,2.8,6.3,6.3,6.3c0,0,0,0,0,0l34.1-0.2c3.5,0,6.3-2.9,6.3-6.3l-0.1-20.4
		c0-1.7-0.7-3.2-1.9-4.4C734.6,542.6,733,542,731.4,542z"/>
	<path fill="#A70000" d="M611.9,633.4c-4.1,0-7.9-1.6-10.8-4.4l-14.5-14.4c-2.9-2.9-4.5-6.7-4.5-10.8c0-4.1,1.6-7.9,4.4-10.8
		l24-24.2c2.9-2.9,6.7-4.5,10.8-4.5c0,0,0,0,0.1,0c4.1,0,7.9,1.6,10.8,4.4l14.5,14.4c6,5.9,6,15.6,0.1,21.6l-24,24.2
		C619.9,631.8,616,633.4,611.9,633.4C611.9,633.4,611.9,633.4,611.9,633.4z M621.4,573.3C621.4,573.3,621.3,573.3,621.4,573.3
		c-1.7,0-3.3,0.7-4.5,1.9l-24,24.2c-1.2,1.2-1.8,2.8-1.8,4.5c0,1.7,0.7,3.3,1.9,4.4l14.5,14.4c1.2,1.2,2.8,1.8,4.5,1.8
		c1.7,0,3.3-0.7,4.4-1.9l24-24.2c2.4-2.5,2.4-6.5,0-8.9l-14.5-14.4C624.6,573.9,623,573.3,621.4,573.3z"/>
	<path fill="#A70000" d="M565.9,728.8c-4,0-7.9-1.6-10.8-4.4c-2.9-2.9-4.5-6.7-4.5-10.8l-0.2-34.1c0-8.4,6.8-15.3,15.2-15.4
		l20.4-0.1c8.4,0,15.3,6.8,15.4,15.2l0.2,34.1c0,4.1-1.6,7.9-4.4,10.8c-2.9,2.9-6.7,4.5-10.8,4.5L565.9,728.8
		C565.9,728.8,565.9,728.8,565.9,728.8z M586.1,673.1C586.1,673.1,586.1,673.1,586.1,673.1l-20.4,0.1c-3.5,0-6.3,2.9-6.3,6.3
		l0.2,34.1c0,1.7,0.7,3.2,1.9,4.4c1.2,1.2,2.8,1.8,4.5,1.8l20.4-0.1c1.7,0,3.2-0.7,4.4-1.9c1.2-1.2,1.8-2.8,1.8-4.5l-0.2-34.1
		C592.4,675.9,589.6,673.1,586.1,673.1z"/>
	<path fill="#A70000" d="M621.2,828.8c-3.9,0-7.8-1.5-10.8-4.4l-24.2-24c-6-5.9-6-15.6-0.1-21.6l14.4-14.5c5.9-6,15.6-6,21.6-0.1h0
		l24.2,24c2.9,2.9,4.5,6.7,4.5,10.8c0,4.1-1.6,7.9-4.4,10.8l-14.4,14.5C629.1,827.2,625.1,828.8,621.2,828.8z M611.4,768.7
		c-1.6,0-3.2,0.6-4.5,1.9L592.5,785c-2.4,2.5-2.4,6.5,0,8.9l24.2,24c2.5,2.4,6.5,2.4,8.9,0l14.4-14.5c1.2-1.2,1.8-2.8,1.8-4.5
		c0-1.7-0.7-3.3-1.9-4.4l-24.2-24h0C614.6,769.3,613,768.7,611.4,768.7z"/>
	<path fill="#A70000" d="M696.9,860.4c-8.4,0-15.3-6.8-15.3-15.2l-0.1-20.4c0-8.4,6.8-15.3,15.2-15.4h0l34.1-0.2c0,0,0,0,0.1,0
		c4,0,7.9,1.6,10.8,4.4c2.9,2.9,4.5,6.7,4.5,10.8l0.1,20.4c0,8.4-6.8,15.3-15.2,15.4L696.9,860.4C697,860.4,696.9,860.4,696.9,860.4
		z M696.8,818.4c-3.5,0-6.3,2.9-6.3,6.3l0.1,20.4c0,3.5,2.8,6.3,6.3,6.3c0,0,0,0,0,0l34.1-0.2c3.5,0,6.3-2.9,6.3-6.3l-0.1-20.4
		c0-1.7-0.7-3.2-1.9-4.4c-1.2-1.2-2.8-1.8-4.4-1.8c0,0,0,0,0,0L696.8,818.4L696.8,818.4z"/>
	<path fill="#A70000" d="M806.9,829.1c-3.9,0-7.8-1.5-10.8-4.4l-14.5-14.4c-6-5.9-6-15.6-0.1-21.6l24-24.2c5.9-6,15.6-6,21.6-0.1
		l14.5,14.4c6,5.9,6,15.6,0.1,21.6l-24,24.2C814.8,827.6,810.9,829.1,806.9,829.1z M788,795c-2.4,2.5-2.4,6.5,0,8.9l14.5,14.4
		c2.5,2.4,6.5,2.4,8.9,0l24-24.2c2.4-2.5,2.4-6.5,0-8.9l-14.5-14.4c-2.5-2.4-6.5-2.4-8.9,0L788,795z"/>
	<path fill="#A70000" d="M842.2,729.3c-8.4,0-15.3-6.8-15.3-15.2l-0.2-34.1c0-4.1,1.6-7.9,4.4-10.8c2.9-2.9,6.7-4.5,10.8-4.5
		l20.4-0.1c0,0,0,0,0.1,0c8.4,0,15.3,6.8,15.3,15.2l0.2,34.1c0,8.4-6.8,15.3-15.2,15.4L842.2,729.3
		C842.2,729.3,842.2,729.3,842.2,729.3z M835.9,714c0,3.5,2.8,6.3,6.3,6.3c0,0,0,0,0,0l20.4-0.1c3.5,0,6.3-2.9,6.3-6.3l-0.2-34.1
		c0-3.5-2.8-6.3-6.3-6.3c0,0,0,0,0,0l-20.4,0.1c-1.7,0-3.2,0.7-4.4,1.9c-1.2,1.2-1.8,2.8-1.8,4.5L835.9,714z"/>
	<path fill="#A70000" d="M816.9,633.7c-4.1,0-7.9-1.6-10.8-4.4l-24.2-24c-6-5.9-6-15.6-0.1-21.6l14.4-14.5c5.9-6,15.6-6,21.6-0.1
		l24.2,24c6,5.9,6,15.6,0.1,21.6l-14.4,14.5C824.9,632.1,821.1,633.7,816.9,633.7C817,633.7,817,633.7,816.9,633.7z M807.1,573.6
		c-1.6,0-3.2,0.6-4.5,1.9L788.3,590c-1.2,1.2-1.8,2.8-1.8,4.5c0,1.7,0.7,3.3,1.9,4.4l24.2,24c1.2,1.2,2.8,1.8,4.4,1.8c0,0,0,0,0,0
		c1.7,0,3.3-0.7,4.4-1.9l14.4-14.5c2.4-2.5,2.4-6.5,0-8.9l-24.2-24C810.3,574.2,808.7,573.6,807.1,573.6z"/>
	<circle fill="#AF2C00" cx="714.4" cy="700.1" r="150.4"/>
	<path fill="#FF3B13" d="M714.4,549.7c-81.6,0-148.1,65-150.3,146.1c37.4,23.5,93.4,38.5,156,38.5c56.6,0,107.8-12.2,144.7-32
		c0-0.7,0-1.5,0-2.2C864.8,617,797.4,549.7,714.4,549.7z"/>
	<circle fill="#973200" cx="714.4" cy="700.1" r="138.2"/>
	<circle cx="714.4" cy="700.1" r="121.5"/>
	<radialGradient id="SVGID_3_" cx="714.1502" cy="696.6956" r="108.96" gradientUnits="userSpaceOnUse">
		<stop  offset="0" style="stop-color:#55FFF3"/>
		<stop  offset="0.5" style="stop-color:#2AC0FF"/>
		<stop  offset="1" style="stop-color:#32003F"/>
	</radialGradient>
	<path fill="url(#SVGID_3_)" d="M821.3,670c0.2,0.8,0.2,0.8,0.2,1.5c-21.3-46.7-77.6-74.8-126.4-54.2c-11.7,4.8-22.7,12.4-31.6,21.3
		c-10.3,11.7-16.5,25.4-19.9,40.5c-6.2,26.8,1.4,52.9,19.9,72.8c15.8,16.5,37.8,25.4,60.4,24c4.1-0.7,7.6-0.7,11.7-1.4
		c25.4-5.5,44.6-22,53.6-44.6c4.8-11,5.5-22.7,4.1-34.3c-2.7-20.6-13.7-38.5-31.6-50.1c-14.4-8.9-29.5-10.3-45.3-11
		c41.2-13.7,85.1,22.7,90,63.9c1.4,10.3,0.7,19.9-0.7,30.2c-3.4,19.2-15.1,34.3-26.8,48.8c37.8-26.1,46.7-82.4,18.5-120.9
		c-5.5-7.6-11.7-13.7-18.5-19.2c-8.2-5.5-16.5-10.3-25.4-13c-11-3.4-22-4.1-33-3.4c-6.2,0.7-12.4,2.1-18.5,4.1
		c-6.9,2.7-12.4,6.2-18.5,9.6c-7.6,4.8-12.4,10.3-17.9,17.2c-9.6,14.4-15.8,29.5-14.4,46.7c0.7,3.4,0.7,7.6,1.4,11
		c4.8,25.4,23.3,45.3,47.4,52.9c10.3,3.4,20.6,3.4,31.6,2.1c4.8-0.7,8.9-2.7,13.7-4.1c7.6-2.7,13-7.6,19.2-13
		c14.4-13.7,22-33.6,17.9-54.2c-6.2-33-40.5-53.6-71.4-43.3c-4.8,2.1-8.9,4.8-13,6.9c-2.7,2.1-4.8,4.8-7.6,6.9
		c-8.2,9.6-12.4,22-11,34.3c0.7,6.2,2.7,12.4,6.2,17.9c11.7,17.9,37.1,22,52.9,7.6c3.4-3.4,5.5-6.9,7.6-11
		c2.1-4.8,2.7-10.3,2.1-15.8c-0.7-4.8-2.1-8.2-4.8-12.4c-9.6-13-30.9-12.4-39.1,2.1c-1.4,2.1-2.1,4.8-2.1,7.6
		c1.4,9.6,9.6,17.9,19.9,16.5c2.7-0.7,4.1-2.1,6.2-4.1c3.4-4.1,2.7-10.3,0-13.7c-3.4-3.4-8.2-3.4-13-3.4c0.7-6.9,8.9-6.2,13.7-4.1
		c2.7,1.4,4.8,3.4,6.2,6.2c0.7,2.1,1.4,4.1,2.1,6.2c1.4,8.2-2.7,15.8-7.6,22c-3.4,3.4-8.9,5.5-13.7,6.2c-13,0-25.4-8.2-29.5-21.3
		c-2.1-6.2-1.7-16.8,2.1-26.8c7-18.5,28.7-26.2,48.1-23.3c10,1.5,19.2,9.6,21.3,12.4c0.7,0.7,4.7,7.4,4.2,6.9
		c-3.5-2.8-11.8-9-15.9-8.3c16.5,22.7,15.1,59.7-15.1,70c-6.2,2.1-12.4,2.7-18.5,2.1c-4.8-0.7-8.9-2.1-13-4.1
		c-2.7-1.4-5.5-3.4-8.2-5.5c-8.9-7.6-13.7-17.2-15.1-28.2c0-4.1,0-7.6,0-11.7c1.4-10.3,6.2-19.2,13-27.5c5.5-6.2,11.7-8.9,18.5-12.4
		c10.3-4.1,20.6-4.8,31.6-2.7c13,2.7,24,8.9,32.3,18.5c4.8,6.2,8.9,12.4,11.7,19.9c1.4,4.8,2.7,8.9,3.4,13.7c0.7,7.6,0,14.4-1.4,22
		c-4.1,15.8-12.4,28.2-26.1,37.8c-14.4,9.6-29.5,13-46,11.7c-4.8-0.7-9.6-1.4-14.4-2.7c-15.1-5.5-28.2-14.4-37.8-28.2
		c-6.9-11-11-22-12.4-34.3c-4.1-37.1,21.3-72.1,57-82.4c46.7-13.7,96.8,15.8,108.5,63.2c6.9,27.5,2.1,54.2-13,78.3
		c-32.3,49.4-99.3,58.8-145.9,25c-14-10.2-21.3-19.5-29.5-30.5c-7.6-11-27-49.6-14.8-93.4c12.8-45.9,60.9-75.2,110.3-77.1
		c-42.6,6.9-82.2,49-88.4,94.3c12.4-61.1,85.1-95.4,140.8-65.2c8.9,5.5,17.2,11,24.7,18.5c4.1,4.8,8.9,9.6,12.2,15.4
		C817.7,660.7,820.4,667,821.3,670z"/>
</g>
<g>
	<path fill="#05090C" d="M1251.3,370.3h-216.2l-73.4,57.4c-8.5,6.7-13.5,16.8-13.5,27.6l0,0h389.9l0,0c0-10.8-5-21-13.5-27.6
		L1251.3,370.3z"/>
	<circle fill="#1C2534" cx="1143.2" cy="272.6" r="150.4"/>
	<path fill="#697484" d="M1143.2,122.1c-81.6,0-148.1,65-150.3,146.1c37.4,23.5,93.4,38.5,156,38.5c56.6,0,107.8-12.2,144.7-32
		c0-0.7,0-1.5,0-2.2C1293.6,189.5,1226.3,122.1,1143.2,122.1z"/>
	<circle fill="#3A4558" cx="1143.2" cy="272.6" r="138.2"/>
	<radialGradient id="SVGID_4_" cx="1143.226" cy="272.5506" r="121.5185" gradientUnits="userSpaceOnUse">
		<stop  offset="0" style="stop-color:#3FFF4C"/>
		<stop  offset="1" style="stop-color:#006D94"/>
	</radialGradient>
	<circle fill="url(#SVGID_4_)" cx="1143.2" cy="272.6" r="121.5"/>
	<g>
		<g>
			<path fill="#FFFFFF" d="M1163.9,389.7l-20.7-8.3l-20.7,8.3l-16.6-14.8l-22.3,0.7l-10.5-19.6l-21.2-6.9l-3.2-22l-17.5-13.7
				l4.6-21.8l-11.7-18.9l11.7-18.9l-4.6-21.8l17.5-13.7l3.2-22l21.2-6.9l10.5-19.6l22.3,0.7l16.6-14.8l20.7,8.3l20.7-8.3l16.6,14.8
				l22.3-0.7l10.5,19.6l21.2,6.9l3.2,22l17.5,13.7l-4.6,21.8l11.7,18.9l-11.7,18.9l4.6,21.8l-17.5,13.7l-3.2,22l-21.2,6.9
				l-10.5,19.6l-22.3-0.7L1163.9,389.7z M1106.7,372.9l16.3,14.6l20.3-8.1l20.3,8.1l16.3-14.6l21.8,0.7l10.3-19.3l20.7-6.8l3.1-21.6
				l17.2-13.5l-4.5-21.4l11.5-18.5l-11.5-18.5l4.5-21.4l-17.2-13.5l-3.1-21.6l-20.7-6.8l-10.3-19.3l-21.8,0.7l-16.3-14.6l-20.3,8.1
				l-20.3-8.1l-16.3,14.6l-21.8-0.7l-10.3,19.3l-20.7,6.8l-3.1,21.6l-17.2,13.5l4.5,21.4l-11.5,18.5l11.5,18.5l-4.5,21.4l17.2,13.5
				l3.1,21.6l20.7,6.8l10.3,19.3L1106.7,372.9z"/>
		</g>
		<g>
			<path fill="#FFFFFF" d="M1161.5,376.1l-18.2-8.5l-18.2,8.5l-14.2-14.2l-20.1,1.8l-8.5-18.3l-19.5-5.2l-1.8-20.1l-16.5-11.5
				l5.2-19.5l-11.5-16.5l11.5-16.5l-5.2-19.5l16.5-11.5l1.8-20.1l19.5-5.2l8.5-18.3l20.1,1.8L1125,169l18.2,8.5l18.2-8.5l14.2,14.2
				l20.1-1.8l8.5,18.3l19.5,5.2l1.8,20.1l16.5,11.5l-5.2,19.5l11.5,16.5l-11.5,16.5l5.2,19.5l-16.5,11.5l-1.8,20.1l-19.5,5.2
				l-8.5,18.3l-20.1-1.8L1161.5,376.1z M1111.5,359.8l13.9,13.9l17.8-8.3l17.8,8.3l13.9-13.9l19.6,1.7l8.3-17.8l19-5.1l1.7-19.6
				l16.1-11.3l-5.1-19l11.3-16.1l-11.3-16.1l5.1-19l-16.1-11.3l-1.7-19.6l-19-5.1l-8.3-17.8l-19.6,1.7l-13.9-13.9l-17.8,8.3
				l-17.8-8.3l-13.9,13.9l-19.6-1.7l-8.3,17.8l-19,5.1l-1.7,19.6l-16.1,11.3l5.1,19l-11.3,16.1l11.3,16.1l-5.1,19l16.1,11.3
				l1.7,19.6l19,5.1l8.3,17.8L1111.5,359.8z"/>
		</g>
		<g>
			<path fill="#FFFFFF" d="M1159.1,362.4l-15.8-8.8l-15.8,8.8l-11.9-13.6l-17.9,2.8l-6.5-16.9l-17.8-3.5l-0.4-18.1l-15.5-9.3
				l5.9-17.1l-11.4-14.1l11.4-14.1l-5.9-17.1l15.5-9.3l0.4-18.1l17.8-3.5l6.5-16.9l17.9,2.8l11.9-13.6l15.8,8.8l15.8-8.8l11.9,13.6
				l17.9-2.8l6.5,16.9l17.8,3.5l0.4,18.1l15.5,9.3l-5.9,17.1l11.4,14.1l-11.4,14.1l5.9,17.1l-15.5,9.3l-0.4,18.1l-17.8,3.5
				l-6.5,16.9l-17.9-2.8L1159.1,362.4z M1143.2,351.4l15.4,8.5l11.6-13.3l17.4,2.7l6.3-16.4l17.3-3.4l0.3-17.6l15.1-9.1l-5.7-16.6
				l11-13.7l-11-13.7l5.7-16.6l-15.1-9.1l-0.3-17.6l-17.3-3.4l-6.3-16.4l-17.4,2.7l-11.6-13.3l-15.4,8.5l-15.4-8.5l-11.6,13.3
				l-17.4-2.7l-6.3,16.4l-17.3,3.4l-0.3,17.6l-15.1,9.1l5.7,16.6l-11,13.7l11,13.7l-5.7,16.6l15.1,9.1l0.3,17.6l17.3,3.4l6.3,16.4
				l17.4-2.7l11.6,13.3L1143.2,351.4z"/>
		</g>
		<g>
			<path fill="#FFFFFF" d="M1156.7,348.8l-13.4-9l-13.4,9l-9.6-13.1l-15.7,3.9l-4.5-15.5l-16.1-1.7l1.1-16.2l-14.5-7.1l6.5-14.8
				l-11.2-11.7l11.2-11.7l-6.5-14.8l14.5-7.1l-1.1-16.2l16.1-1.7l4.5-15.5l15.7,3.9l9.6-13.1l13.4,9l13.4-9l9.6,13.1l15.7-3.9
				l4.5,15.5l16.1,1.7l-1.1,16.2l14.5,7.1l-6.5,14.8l11.2,11.7l-11.2,11.7l6.5,14.8l-14.5,7.1l1.1,16.2l-16.1,1.7l-4.5,15.5
				l-15.7-3.9L1156.7,348.8z M1121,333.5l9.2,12.6l13-8.7l13,8.7l9.2-12.6l15.2,3.7l4.3-15l15.5-1.7l-1-15.6l14-6.9l-6.3-14.3
				l10.8-11.3l-10.8-11.3l6.3-14.3l-14-6.9l1-15.6l-15.5-1.7l-4.3-15l-15.2,3.7l-9.2-12.6l-13,8.7l-13-8.7l-9.2,12.6l-15.2-3.7
				l-4.3,15l-15.5,1.7l1,15.6l-14,6.9l6.3,14.3l-10.8,11.3l10.8,11.3l-6.3,14.3l14,6.9l-1,15.6l15.5,1.7l4.3,15L1121,333.5z"/>
		</g>
		<g>
			<path fill="#FFFFFF" d="M1154.3,335.3l-11.1-9.3l-11.1,9.3l-7.2-12.5l-13.6,4.9l-2.5-14.2l-14.4,0l2.5-14.2l-13.6-4.9l7.2-12.5
				l-11.1-9.3l11.1-9.3l-7.2-12.5l13.6-4.9l-2.5-14.2l14.4,0l2.5-14.2l13.6,4.9l7.2-12.5l11.1,9.3l11.1-9.3l7.2,12.5l13.6-4.9
				l2.5,14.2l14.4,0l-2.5,14.2l13.6,4.9l-7.2,12.5l11.1,9.3l-11.1,9.3l7.2,12.5l-13.6,4.9l2.5,14.2l-14.4,0l-2.5,14.2l-13.6-4.9
				L1154.3,335.3z M1125.8,320.4l6.9,11.9l10.5-8.8l10.5,8.8l6.9-11.9l12.9,4.7l2.4-13.5l13.7,0l-2.4-13.5l12.9-4.7l-6.9-11.9
				l10.5-8.8l-10.5-8.8l6.9-11.9l-12.9-4.7l2.4-13.5l-13.7,0l-2.4-13.5l-12.9,4.7l-6.9-11.9l-10.5,8.8l-10.5-8.8l-6.9,11.9
				l-12.9-4.7l-2.4,13.5l-13.7,0l2.4,13.5l-12.9,4.7l6.9,11.9l-10.5,8.8l10.5,8.8l-6.9,11.9l12.9,4.7l-2.4,13.5l13.7,0l2.4,13.5
				L1125.8,320.4z"/>
		</g>
		<g>
			<path fill="#FFFFFF" d="M1151.9,321.9l-8.7-9.6l-8.7,9.6l-4.9-12l-11.5,6.1l-0.5-13l-12.9,1.8l4-12.4l-12.7-2.7l8-10.2l-11-6.9
				l11-6.9l-8-10.2l12.7-2.7l-4-12.4l12.9,1.8l0.5-13l11.5,6.1l4.9-12l8.7,9.6l8.7-9.6l4.9,12l11.5-6.1l0.5,13l12.9-1.8l-4,12.4
				l12.7,2.7l-8,10.2l11,6.9l-11,6.9l8,10.2l-12.7,2.7l4,12.4l-12.9-1.8l-0.5,13l-11.5-6.1L1151.9,321.9z M1143.2,309.3l8,8.9
				l4.5-11.1l10.6,5.6l0.4-12l11.9,1.6l-3.7-11.4l11.7-2.5l-7.4-9.5l10.2-6.4l-10.2-6.4l7.4-9.5l-11.7-2.5l3.7-11.4l-11.9,1.6
				l-0.4-12l-10.6,5.6l-4.5-11.1l-8,8.9l-8-8.9l-4.5,11.1l-10.6-5.6l-0.4,12l-11.9-1.6l3.7,11.4l-11.7,2.5l7.4,9.5l-10.2,6.4
				l10.2,6.4l-7.4,9.5l11.7,2.5l-3.7,11.4l11.9-1.6l0.4,12l10.6-5.6l4.5,11.1L1143.2,309.3z"/>
		</g>
		<g>
			<path fill="#FFFFFF" d="M1149.6,309l-6.4-10.2l-6.4,10.2l-2.6-11.8l-9.5,7.4l1.7-11.9l-11.5,3.7l5.6-10.7l-12.1-0.5l8.9-8.1
				l-11.2-4.6l11.2-4.6l-8.9-8.1l12.1-0.5l-5.6-10.7l11.5,3.7l-1.7-11.9l9.5,7.4l2.6-11.8l6.4,10.2l6.4-10.2l2.6,11.8l9.5-7.4
				l-1.7,11.9l11.5-3.7l-5.6,10.7l12.1,0.5l-8.9,8.1l11.2,4.6l-11.2,4.6l8.9,8.1l-12.1,0.5l5.6,10.7l-11.5-3.7l1.7,11.9l-9.5-7.4
				L1149.6,309z M1143.2,295l5.5,8.8l2.2-10.1l8.2,6.3l-1.4-10.2l9.8,3.2l-4.8-9.1l10.3-0.4l-7.7-6.9l9.6-3.9l-9.6-3.9l7.7-6.9
				l-10.3-0.4l4.8-9.1l-9.8,3.2l1.4-10.2l-8.2,6.3l-2.2-10.1l-5.5,8.8l-5.5-8.8l-2.2,10.1l-8.2-6.3l1.4,10.2l-9.8-3.2l4.8,9.1
				l-10.3,0.4l7.7,6.9l-9.6,3.9l9.6,3.9l-7.7,6.9l10.3,0.4l-4.8,9.1l9.8-3.2l-1.4,10.2l8.2-6.3l2.2,10.1L1143.2,295z"/>
		</g>
		<g>
			<path fill="#FFFFFF" d="M1147.8,298.3l-4.5-12.4l-4.5,12.4l0-13.2l-8.5,10.1l4.5-12.4l-11.4,6.6l8.5-10.1l-13,2.3l11.4-6.6
				l-13-2.3l13-2.3l-11.4-6.6l13,2.3l-8.4-10.1l11.4,6.6l-4.5-12.4l8.5,10.1l0-13.2l4.5,12.4l4.5-12.4l0,13.2l8.5-10.1l-4.5,12.4
				l11.4-6.6l-8.5,10.1l13-2.3l-11.4,6.6l13,2.3l-13,2.3l11.4,6.6l-13-2.3l8.4,10.1l-11.4-6.6l4.5,12.4l-8.5-10.1L1147.8,298.3z
				 M1140.7,279.6l0,7.4l2.6-7l2.6,7l0-7.4l4.8,5.7l-2.5-7l6.5,3.7l-4.8-5.7l7.3,1.3l-6.4-3.7l7.3-1.3l-7.3-1.3l6.4-3.7l-7.3,1.3
				l4.8-5.7l-6.5,3.7l2.5-7l-4.8,5.7l0-7.4l-2.6,7l-2.6-7l0,7.4l-4.8-5.7l2.5,7l-6.5-3.7l4.8,5.7l-7.3-1.3l6.4,3.7l-7.3,1.3l7.3,1.3
				l-6.4,3.7l7.3-1.3l-4.8,5.7l6.5-3.7l-2.5,7L1140.7,279.6z"/>
		</g>
	</g>
	<g>
		<polygon fill="#05090C" points="1118.5,102.7 1124.5,127.4 1160.5,127.4 1167.9,102.7 		"/>
		<polygon fill="#05090C" points="1143.2,147 1118.5,102.7 1167.9,102.7 		"/>
		<g>
			<polygon fill="#007397" points="1143.2,130.5 1122.9,94 1163.5,94 			"/>
			<path d="M1143.2,133.5l-22.9-41.1h45.7L1143.2,133.5z M1125.5,95.5l17.7,31.9l17.7-31.9H1125.5z"/>
		</g>
		<path fill="#1BC9FF" d="M1143.1,104.5c4.8,0,9.4-0.5,13.7-1.6l4.2-7.5h-35.5l4.2,7.5C1133.9,104,1138.4,104.5,1143.1,104.5z"/>
		<circle fill="#05090C" cx="1143.1" cy="105" r="6.1"/>
	</g>
	<g>
		<polygon fill="#05090C" points="1036.9,137.8 1054.5,156.2 1085.6,138.2 1079.7,113.1 		"/>
		<polygon fill="#05090C" points="1080.5,163.8 1036.9,137.8 1079.7,113.1 		"/>
		<g>
			<polygon fill="#007397" points="1072.2,149.5 1036.4,128.1 1071.5,107.8 			"/>
			<path d="M1073.7,152.2l-40.3-24.1l39.6-22.9L1073.7,152.2z M1039.3,128.1l31.3,18.7l-0.6-36.5L1039.3,128.1z"/>
		</g>
		<path fill="#1BC9FF" d="M1059.1,127.1c4.2-2.4,7.9-5.2,11.1-8.2l-0.1-8.5l-30.7,17.7l7.4,4.4
			C1050.9,131.2,1055,129.4,1059.1,127.1z"/>
		<circle fill="#05090C" cx="1059.3" cy="127.5" r="6.1"/>
	</g>
	<g>
		<polygon fill="#05090C" points="983.8,209 1008.2,216.2 1026.2,185 1008.4,166.2 		"/>
		<polygon fill="#05090C" points="1034.5,209.8 983.8,209 1008.4,166.2 		"/>
		<g>
			<polygon fill="#007397" points="1020.2,201.5 978.4,200.8 998.7,165.7 			"/>
			<path d="M1022.8,203l-47-0.7l22.9-39.6L1022.8,203z M981,199.4l36.5,0.6l-18.7-31.3L981,199.4z"/>
		</g>
		<path fill="#1BC9FF" d="M997.6,188.6c2.4-4.2,4.3-8.4,5.5-12.7l-4.4-7.3L981,199.4l8.6,0.1C992.6,196.4,995.3,192.7,997.6,188.6z"
			/>
		<circle fill="#05090C" cx="998.1" cy="188.9" r="6.1"/>
	</g>
	<g>
		<polygon fill="#05090C" points="973.3,297.2 998.1,291.3 998.1,255.3 973.3,247.9 		"/>
		<polygon fill="#05090C" points="1017.7,272.6 973.3,297.2 973.3,247.9 		"/>
		<g>
			<polygon fill="#007397" points="1001.1,272.6 964.7,292.8 964.7,252.3 			"/>
			<path d="M963.2,295.4v-45.7l41.1,22.9L963.2,295.4z M966.2,254.8v35.5l31.9-17.7L966.2,254.8z"/>
		</g>
		<path fill="#1BC9FF" d="M975.2,272.7c0-4.8-0.5-9.4-1.6-13.7l-7.5-4.2v35.5l7.5-4.2C974.7,281.9,975.2,277.4,975.2,272.7z"/>
		<circle fill="#05090C" cx="975.7" cy="272.7" r="6.1"/>
	</g>
	<g>
		<polygon fill="#05090C" points="1008.4,378.9 1026.9,361.3 1008.9,330.1 983.8,336.1 		"/>
		<polygon fill="#05090C" points="1034.5,335.3 1008.4,378.9 983.8,336.1 		"/>
		<g>
			<polygon fill="#007397" points="1020.2,343.6 998.7,379.4 978.4,344.3 			"/>
			<path d="M998.7,382.4l-22.9-39.6l47-0.7L998.7,382.4z M981,345.7l17.7,30.7l18.7-31.3L981,345.7z"/>
		</g>
		<path fill="#1BC9FF" d="M997.7,356.7c-2.4-4.2-5.2-7.9-8.2-11.1l-8.5,0.1l17.7,30.7l4.4-7.4
			C1001.9,364.9,1000.1,360.8,997.7,356.7z"/>
		<circle fill="#05090C" cx="998.2" cy="356.4" r="6.1"/>
	</g>
	<g>
		<polygon fill="#05090C" points="1079.7,432 1086.9,407.6 1055.7,389.6 1036.9,407.3 		"/>
		<polygon fill="#05090C" points="1080.5,381.3 1079.7,432 1036.9,407.3 		"/>
		<g>
			<polygon fill="#007397" points="1072.2,395.6 1071.5,437.3 1036.4,417.1 			"/>
			<path d="M1073,439.9l-39.6-22.9l40.3-24.1L1073,439.9z M1039.3,417l30.7,17.7l0.6-36.5L1039.3,417z"/>
		</g>
		<path fill="#1BC9FF" d="M1059.3,418.2c-4.2-2.4-8.4-4.3-12.7-5.5l-7.3,4.4l30.7,17.7l0.1-8.6
			C1067,423.2,1063.4,420.5,1059.3,418.2z"/>
		<circle fill="#05090C" cx="1059.5" cy="417.7" r="6.1"/>
	</g>
	<g>
		<polygon fill="#05090C" points="1167.9,442.4 1161.9,417.7 1125.9,417.7 1118.5,442.4 		"/>
		<polygon fill="#05090C" points="1143.2,398.1 1167.9,442.4 1118.5,442.4 		"/>
		<g>
			<polygon fill="#007397" points="1143.2,414.6 1163.5,451.1 1122.9,451.1 			"/>
			<path d="M1166.1,452.6h-45.7l22.9-41.1L1166.1,452.6z M1125.5,449.6h35.5l-17.7-31.9L1125.5,449.6z"/>
		</g>
		<path fill="#1BC9FF" d="M1143.3,440.6c-4.8,0-9.4,0.5-13.7,1.6l-4.2,7.5h35.5l-4.2-7.5C1152.6,441.1,1148.1,440.6,1143.3,440.6z"
			/>
		<circle fill="#05090C" cx="1143.3" cy="440.1" r="6.1"/>
	</g>
	<g>
		<polygon fill="#05090C" points="1249.5,407.3 1232,388.9 1200.8,406.9 1206.8,432 		"/>
		<polygon fill="#05090C" points="1206,381.3 1249.5,407.3 1206.8,432 		"/>
		<g>
			<polygon fill="#007397" points="1214.3,395.6 1250.1,417.1 1214.9,437.3 			"/>
			<path d="M1213.5,439.9l-0.7-47l40.3,24.1L1213.5,439.9z M1215.8,398.3l0.6,36.5l30.7-17.7L1215.8,398.3z"/>
		</g>
		<path fill="#1BC9FF" d="M1227.4,418c-4.2,2.4-7.9,5.2-11.1,8.2l0.1,8.5l30.7-17.7l-7.4-4.4C1235.6,413.9,1231.4,415.7,1227.4,418z
			"/>
		<circle fill="#05090C" cx="1227.1" cy="417.6" r="6.1"/>
	</g>
	<g>
		<polygon fill="#05090C" points="1302.7,336.1 1278.3,328.9 1260.3,360.1 1278,378.9 		"/>
		<polygon fill="#05090C" points="1251.9,335.3 1302.7,336.1 1278,378.9 		"/>
		<g>
			<polygon fill="#007397" points="1266.3,343.6 1308,344.3 1287.7,379.4 			"/>
			<path d="M1287.7,382.4l-24.1-40.3l47,0.7L1287.7,382.4z M1269,345.1l18.7,31.3l17.7-30.7L1269,345.1z"/>
		</g>
		<path fill="#1BC9FF" d="M1288.8,356.5c-2.4,4.2-4.3,8.4-5.5,12.7l4.4,7.3l17.7-30.7l-8.6-0.1
			C1293.9,348.7,1291.2,352.4,1288.8,356.5z"/>
		<circle fill="#05090C" cx="1288.4" cy="356.2" r="6.1"/>
	</g>
	<g>
		<polygon fill="#05090C" points="1313.1,247.9 1288.4,253.8 1288.4,289.8 1313.1,297.2 		"/>
		<polygon fill="#05090C" points="1268.8,272.6 1313.1,247.9 1313.1,297.2 		"/>
		<g>
			<polygon fill="#007397" points="1285.3,272.6 1321.8,252.3 1321.8,292.8 			"/>
			<path d="M1323.3,295.4l-41.1-22.9l41.1-22.9V295.4z M1288.4,272.6l31.9,17.7v-35.5L1288.4,272.6z"/>
		</g>
		<path fill="#1BC9FF" d="M1311.3,272.4c0,4.8,0.5,9.4,1.6,13.7l7.5,4.2v-35.5l-7.5,4.2C1311.8,263.2,1311.3,267.7,1311.3,272.4z"/>
		<circle fill="#05090C" cx="1310.8" cy="272.4" r="6.1"/>
	</g>
	<g>
		<polygon fill="#05090C" points="1278,166.2 1259.6,183.8 1277.6,215 1302.7,209 		"/>
		<polygon fill="#05090C" points="1251.9,209.8 1278,166.2 1302.7,209 		"/>
		<g>
			<polygon fill="#007397" points="1266.3,201.5 1287.7,165.7 1308,200.8 			"/>
			<path d="M1263.6,203l24.1-40.3l22.9,39.6L1263.6,203z M1287.7,168.6L1269,200l36.5-0.6L1287.7,168.6z"/>
		</g>
		<path fill="#1BC9FF" d="M1288.7,188.4c2.4,4.2,5.2,7.9,8.2,11.1l8.5-0.1l-17.7-30.7l-4.4,7.4
			C1284.5,180.2,1286.4,184.3,1288.7,188.4z"/>
		<circle fill="#05090C" cx="1288.3" cy="188.7" r="6.1"/>
	</g>
	<g>
		<polygon fill="#05090C" points="1206.8,113.1 1199.6,137.5 1230.8,155.5 1249.5,137.8 		"/>
		<polygon fill="#05090C" points="1206,163.8 1206.8,113.1 1249.5,137.8 		"/>
		<g>
			<polygon fill="#007397" points="1214.3,149.5 1214.9,107.8 1250.1,128.1 			"/>
			<path d="M1212.7,152.2l0.7-47l39.6,22.9L1212.7,152.2z M1216.4,110.3l-0.6,36.5l31.3-18.7L1216.4,110.3z"/>
		</g>
		<path fill="#1BC9FF" d="M1227.2,127c4.2,2.4,8.4,4.3,12.7,5.5l7.3-4.4l-30.7-17.7l-0.1,8.6C1219.4,121.9,1223.1,124.6,1227.2,127z
			"/>
		<circle fill="#05090C" cx="1226.9" cy="127.4" r="6.1"/>
	</g>
</g>
<g>
	<path fill="#130800" d="M375.4,802.4H159.1l-73.4,57.4c-8.5,6.7-13.5,16.8-13.5,27.6v0h389.9v0c0-10.8-5-21-13.5-27.6L375.4,802.4z
		"/>
	<circle fill="#58595B" cx="267.3" cy="704.7" r="150.4"/>
	<path fill="#939598" d="M267.3,554.2c-81.6,0-148.1,65-150.3,146.1c37.4,23.5,93.4,38.5,156,38.5c56.6,0,107.8-12.2,144.7-32
		c0-0.7,0-1.5,0-2.2C417.7,621.6,350.3,554.2,267.3,554.2z"/>
	<circle fill="#130800" cx="267.3" cy="704.7" r="138.2"/>
	<radialGradient id="SVGID_5_" cx="267.2541" cy="704.6561" r="121.5185" gradientUnits="userSpaceOnUse">
		<stop  offset="0" style="stop-color:#1593FF"/>
		<stop  offset="1" style="stop-color:#55F3FF"/>
	</radialGradient>
	<circle fill="url(#SVGID_5_)" cx="267.3" cy="704.7" r="121.5"/>
	<path fill="#FFFFFF" d="M315.7,845.4c-13.4-39.8-24-71-31.7-93.7c-3-8.8-5.4-16-7.4-21.9c1.3,5.1,2.8,11.2,4.6,18.5
		c5.4,21.8,12.8,51.6,22.3,89.3l-1.3,0.3c-9.6-37.7-17.3-67.6-23-89.5c-1.8-7.1-3.4-13.1-4.7-18.1c0.9,5.1,1.9,11.2,3.1,18.4
		c3.7,21.9,8.7,52,15.4,90.1l-1.3,0.2c-6.6-38.1-12-68.1-15.9-90c-1.3-7.2-2.4-13.3-3.3-18.4c0.5,5,1,10.9,1.6,17.8
		c2,21.9,4.7,51.9,8.3,89.8l-1.3,0.1c-3.6-37.9-6.7-67.8-8.9-89.7c-0.7-7.4-1.4-13.6-1.9-18.8c0.1,5.7,0.2,12.5,0.3,20.9
		c0.3,22.5,0.7,53.4,1.5,92.7l-1.3,0c-0.7-39.3-1.5-70.3-2-93c-0.2-7.6-0.3-13.9-0.4-19.2c-0.2,4-0.5,8.6-0.8,13.8
		c-1.3,20.3-3,48.2-4.9,83.3l-1.3-0.1c2-35.1,3.4-63,4.4-83.4c0.3-5.8,0.5-10.8,0.8-15.2c-0.7,5.3-1.6,11.8-2.7,19.5
		c-3.1,22.1-7.4,52.3-12.5,90.6l-1.3-0.2c5.2-38.3,9.1-68.3,12-90.3c1-7.7,1.8-14.1,2.5-19.4c-1.2,5.4-2.6,11.8-4.3,19.5
		c-4.9,22.1-11.5,52.4-19.8,90.7l-1.3-0.3c0,0,0,0,0-0.1c8.2-38.3,14.6-68.6,19.2-90.7c1.7-8.1,3.1-14.8,4.3-20.3
		c-1.7,5.6-3.7,12.3-6.2,20.6c-6.5,21.5-15.4,50.9-26.6,88.7l-1.3-0.4c11.2-37.8,19.9-67.6,26.3-89.4c2-6.9,3.7-12.8,5.2-17.7
		c-1.1,2.8-2.3,5.9-3.6,9.3c-6.7,17.6-16,41.7-27.4,72l-1.2-0.5c11.4-30.4,20.5-54.7,27.1-72.5c1.8-4.7,3.3-8.9,4.6-12.4
		c-2.1,4.5-4.7,9.9-7.8,16.3c-8.9,18.5-21,43.9-36.2,76.3l-1.2-0.6c15.3-32.4,27.1-57.8,35.8-76.4c2.6-5.7,4.9-10.5,6.8-14.7
		c-1.9,3.2-4,6.9-6.4,11.1c-9.7,16.8-22.9,39.9-39.4,69l-1.2-0.7c16.5-29.1,29.5-52.2,38.9-69.1c2.8-4.9,5.1-9.1,7.2-12.8
		c-3,4.3-6.6,9.6-10.9,15.9c-12.2,17.7-28.8,41.9-49.7,72.7l-1.1-0.7c20.9-30.8,37.2-55,49.1-72.7c4.2-6.2,7.7-11.4,10.6-15.7
		c-3.3,4-7.2,8.9-11.8,14.7c-13.4,16.6-31.8,39.4-55.1,68.4l-1-0.8c23.3-29.1,41.5-52.1,54.9-69c4.3-5.4,8-10,11-13.9
		c-2.9,3.1-6.2,6.6-10.1,10.7c-13.7,14.5-32.4,34.3-56,59.7l-1-0.9c23.6-25.3,42.2-45.5,55.8-60.2c3.7-4,7-7.6,9.8-10.6
		c-2.8,2.6-6.1,5.5-9.8,8.9c-14.6,13.2-34.6,31.3-59.5,54.2l-0.9-1c24.9-22.9,44.5-41.1,58.8-54.3c4.7-4.4,8.7-8.1,12.1-11.2
		c-4.9,3.7-10.9,8.4-18.6,14.3c-17.7,13.6-41.9,32.2-72.8,56.2l-0.8-1c30.9-24,55-42.8,72.6-56.6c6-4.7,11.1-8.7,15.3-12
		c-2.7,1.8-5.8,3.8-9.2,6c-15.8,10.3-37.4,24.5-64.5,42.6l-0.7-1.1c27.1-18,48.8-32.6,64.5-43.2c4.1-2.8,7.7-5.2,10.8-7.3
		c-3.9,2.1-8.5,4.7-13.9,7.6c-17.6,9.6-41.7,22.8-71.9,39.5l-0.6-1.2c30.3-16.8,54-30.1,71.4-39.8c5.6-3.1,10.3-5.8,14.4-8
		c-4.7,2.1-10.3,4.6-17.1,7.6c-19.3,8.6-45.7,20.4-79.1,35.5l-0.5-1.2c33.4-15.1,59.6-27.1,78.7-35.9c6.5-3,12-5.5,16.5-7.6
		c-4.6,1.6-10.1,3.6-16.6,5.9c-19.6,6.9-46.4,16.5-80.4,28.7l-0.5-1.2c34-12.3,60.8-22.1,80.4-29.3c5.8-2.1,10.8-4,15.1-5.5
		c-3.8,1-8.1,2.2-13.1,3.5c-19.4,5.2-46,12.3-79.2,21.4l-0.4-1.3c33.2-9.1,59.5-16.5,78.7-21.9c6.4-1.8,11.7-3.3,16.2-4.5
		c-6.4,1.2-14.4,2.6-24.6,4.5c-23,4.1-54.4,9.8-94.5,17.3l-0.2-1.3c40.1-7.4,71.5-13.4,94.4-17.8c8.7-1.7,15.9-3,21.7-4.1
		c-4.3,0.4-9.3,1-15,1.5c-20.3,2.1-48.1,4.9-83.3,8.7l-0.1-1.3c35.2-3.8,63.2-7,83.7-9.3c6.3-0.7,11.7-1.3,16.2-1.8
		c-4.7,0.1-10.3,0.2-17,0.4c-20.2,0.5-47.9,1.1-83.1,2.1l0-1.3c35.3-1,63.1-1.9,83.4-2.6c6.1-0.2,11.4-0.4,15.9-0.5
		c-3.4-0.2-7.3-0.4-11.7-0.7c-18.6-1.1-44.1-2.5-76.2-4.1l0.1-1.3c32.1,1.6,57.5,2.8,76.1,3.6c5.5,0.2,10.2,0.5,14.2,0.6
		c-5.3-0.7-11.7-1.6-19.5-2.7c-20.4-2.8-48.4-6.7-84.2-11.6l0.2-1.3c35.8,4.8,63.9,8.4,84.4,11.1c6.7,0.9,12.3,1.6,17.1,2.2
		c-3.1-0.7-6.6-1.5-10.5-2.3c-17.9-4-42.3-9.4-73-15.9l0.3-1.3c30.7,6.6,55.2,11.7,73.1,15.4c5,1,9.4,2,13.1,2.7
		c-5.3-1.6-11.8-3.6-19.8-6.1c-20.1-6.2-47.5-14.7-82.7-25.4l0.4-1.3c35.2,10.7,62.8,18.9,82.9,25c6.8,2,12.4,3.7,17.2,5.2
		c-2.7-1.1-5.8-2.3-9.2-3.7c-16.9-6.7-40-15.9-68.8-27.2l0.5-1.2c28.8,11.3,52,20.2,68.8,26.6c4.4,1.7,8.2,3.1,11.5,4.4
		c-5.4-2.7-12-6-20.3-10.1c-20-10-47.4-23.6-82.4-40.9l0.6-1.2c35,17.2,62.3,30.5,82.2,40.2c7.7,3.8,14.1,6.9,19.3,9.4
		c-4-2.4-8.7-5.2-14.2-8.6c-17.7-10.7-41.9-25.3-72.5-43.5l0.7-1.1c30.6,18.3,55.1,32.6,72.9,43.1c5.6,3.3,10.3,6.1,14.3,8.4
		c-4.3-3.1-9.5-6.8-15.7-11.3c-17.6-12.7-41.6-30-72.3-51.8l0.8-1.1c30.7,21.8,54.9,38.9,72.6,51.4c6.3,4.5,11.6,8.2,16,11.3
		c-3.8-3.2-8.4-7.1-13.8-11.7c-16-13.6-37.9-32.2-65.8-55.7l0.9-1c27.9,23.5,50.1,42,66.3,55.5c5.3,4.4,9.8,8.1,13.5,11.3
		c-3.1-3.1-6.8-6.8-11.1-11.1c-14.3-14.4-34-34-58.9-58.7l0.9-0.9c24.9,24.7,44.7,44.1,59.2,58.2c4.4,4.3,8.1,8,11.3,11.1
		c-3.4-4-7.4-8.7-12.2-14.4c-14.1-16.6-33.4-39.4-57.9-68l1-0.9c24.5,28.6,43.9,50.9,58,67.3c5.2,6,9.5,11,13.1,15.1
		c-3.5-4.9-7.9-11-13.3-18.5c-13.2-18.3-31.2-43.4-54.5-75.5l1.1-0.8c23.3,32.1,41.8,57.3,55.2,75.6c5.3,7.3,9.7,13.2,13.2,18
		c-1.9-3.2-4.1-6.8-6.6-10.9c-9.5-15.8-22.5-37.5-39.1-64.8l1.1-0.7c16.6,27.3,30,49,39.8,64.9c2.4,3.9,4.5,7.2,6.3,10.2
		c-1.9-3.9-4.1-8.4-6.8-13.6c-8.7-17.5-20.6-41.5-35.8-71.9l1.2-0.6c15.2,30.4,27.3,54.2,36.2,71.6c2.8,5.5,5.2,10.2,7.2,14.1
		c-1.5-3.9-3.3-8.4-5.4-13.7c-7.2-18.1-17-42.8-29.5-73.9l1.2-0.5c12.5,31,22.6,55.5,29.9,73.4c2.1,5.1,3.9,9.5,5.4,13.2
		c-1.5-5-3.4-11-5.6-18.1c-6.3-20.5-15-48.7-26.1-84.3l1.3-0.4c0,0,0,0,0,0.1c11.2,35.6,20,63.5,26.5,83.8
		c2.3,7.3,4.2,13.3,5.8,18.4c-1.1-4.8-2.3-10.6-3.9-17.5c-4.6-20.8-10.9-49.3-19-85.2l1.3-0.3c8.1,35.9,14.7,64.1,19.5,84.8
		c1.5,6.7,2.8,12.3,3.9,17c-0.8-5.9-1.8-13-3-21.8c-3.2-22.8-7.5-54.1-13.2-94l1.3-0.2c5.7,39.8,10.4,71.1,13.8,93.9
		c1.4,9.1,2.5,16.5,3.3,22.4c-0.3-4.9-0.6-10.8-1-17.8c-1.2-21.2-2.8-50.2-5-86.7l1.3-0.1c0,0,0,0,0,0.1c2.2,36.5,4.2,65.5,5.6,86.7
		c0.4,6.5,0.8,12,1.1,16.7c0.1-5.6,0.3-12.3,0.5-20.4c0.5-22.4,1.3-53.1,2-92.3l1.3,0c-0.7,39.1-1.1,69.9-1.5,92.4
		c-0.1,8.7-0.2,15.9-0.3,21.7c0.5-4.6,1.1-10.1,1.8-16.6c2.2-20.4,5.2-48.4,8.8-83.6l1.3,0.1c-3.6,35.2-6.3,63.3-8.2,83.7
		c-0.6,5.8-1,10.8-1.4,15.1c1-5.3,2.2-11.7,3.6-19.3c4.1-21.8,9.6-51.7,16.6-89.7l1.3,0.2c-6.9,38.1-12.2,68-16,89.8
		c-1.5,8.5-2.7,15.4-3.7,21.1c1.3-4.6,2.8-10.1,4.6-16.7c5.4-19.8,12.9-47,22.1-81.4l1.3,0.3c-9.2,34.4-16.4,61.7-21.6,81.7
		c-1.5,5.9-2.9,10.9-4,15.3c1.7-4.7,3.7-10.2,6.1-16.8c7.2-20,17.1-47.5,29.5-82.4l1.2,0.4c-12.4,34.9-22,62.4-29,82.5
		c-2.4,7-4.5,12.8-6.2,17.6c2-4.3,4.3-9.4,7-15.5c8.7-19,20.5-45,35.2-77.9l1.2,0.5c-14.7,32.9-26.3,58.9-34.7,77.9
		c-2.5,5.8-4.7,10.7-6.6,14.9c2.7-5,6.1-11,10.1-18.3c10.8-19.6,25.6-46.5,44.4-81l1.2,0.6c-18.8,34.5-33.5,61.7-44.2,81.5
		c-4.5,8.4-8.1,15.1-11,20.5c2.2-3.4,4.9-7.3,7.9-11.8c10.5-15.7,24.9-37.1,42.8-64.1l1.1,0.7c-17.9,27-32,48.7-42.4,64.6
		c-2.1,3.2-4,6.1-5.7,8.7c3.1-3.9,6.7-8.5,10.9-13.9c13.3-17,31.5-40.2,54.6-70l1,0.8c-23.1,29.8-41,53.2-54.1,70.3
		c-5.2,6.8-9.5,12.3-12.9,16.8c2.9-3.1,6.2-6.7,10.1-10.9c13.3-14.3,31.5-34,54.1-58.6l1,0.9c-22.6,24.6-40.4,44.3-53.5,58.7
		c-2.7,3-5.1,5.6-7.3,8c4.2-4,9.3-8.7,15.4-14.4c17.3-16.1,40.9-38.2,70.9-66.6l0.9,1c-30.1,28.4-53.4,50.6-70.4,66.8
		c-7.6,7.2-13.6,13-18.4,17.5c3.9-3.1,8.5-6.7,14.1-11.1c16.5-13,39-30.7,67.1-53.2l0.8,1c-28.1,22.4-50.5,40.5-66.8,53.7
		c-4,3.3-7.6,6.1-10.7,8.6c4.7-3.2,10.3-7,17-11.5c19.6-13.2,46.5-31.4,80.4-54.6l0.7,1.1c-34,23.2-60.5,41.5-79.9,54.8
		c-7.9,5.5-14.4,9.9-19.5,13.4c5-2.8,11.2-6.3,18.6-10.5c19.7-11.1,46.6-26.3,80.8-45.8l0.7,1.2c-34.2,19.5-61.2,35.1-80.9,46.5
		c-7.1,4.1-13,7.5-17.9,10.3c4.2-2,9.3-4.3,15.1-7c19-8.8,45.1-20.8,77.8-36.1l0.6,1.2c-32.7,15.3-58.6,27.7-77.6,36.7
		c-5.1,2.4-9.5,4.5-13.3,6.3c4.9-1.8,10.6-4,17.4-6.5c21.3-8,50.5-18.9,87.3-32.8l0.5,1.2c-36.7,13.9-65.5,25-86.6,33.1
		c-7.4,2.9-13.6,5.2-18.7,7.2c6-1.7,13.4-3.9,22.4-6.5c22.9-6.6,54.4-15.8,94.5-27.6l0.4,1.3c-40.2,11.8-71.7,21.3-94.7,28.2
		c-9.7,2.9-17.5,5.2-23.7,7.1c4.7-1,10.3-2.1,16.9-3.4c20.3-4.1,48.2-9.7,83.3-17l0.3,1.3c-35.1,7.3-63.1,13.3-83.5,17.7
		c-5.5,1.2-10.3,2.2-14.5,3.1c4.9-0.6,10.7-1.3,17.5-2.2c21.3-2.7,50.6-6.3,87.8-11.1l0.2,1.3c-37.2,4.8-66.5,8.7-87.9,11.6
		c-7.8,1-14.2,1.9-19.5,2.6c4.3-0.2,9.3-0.4,15.2-0.7c19.7-0.9,46.6-2,80.6-3.7l0.1,1.3c-34,1.7-61,3.1-80.7,4.2
		c-5,0.3-9.3,0.5-13.1,0.7c4.4,0.1,9.4,0.3,15.3,0.5c20.8,0.7,49.3,1.6,85.2,2.6l0,1.3c-35.9-1-64.1-1.6-84.7-2.1
		c-6.1-0.1-11.3-0.2-15.7-0.4c5.5,0.6,12.1,1.3,20.1,2.1c22.7,2.4,53.8,5.7,93.3,9.8l-0.1,1.3c-39.5-4-70.5-7-93.1-9.2
		c-8.6-0.8-15.7-1.5-21.4-2.1c5.4,1,11.9,2.2,19.7,3.7c21.6,4,51.3,9.5,89.1,16.4l-0.2,1.3c-37.8-6.8-67.8-12.1-89.6-15.9
		c-7.7-1.4-14.1-2.5-19.4-3.4c4.1,1.1,8.9,2.4,14.5,3.9c19.2,5.2,45.6,12.3,79,21.1l-0.3,1.3c-33.4-8.8-59.9-15.7-79.3-20.7
		c-5.1-1.3-9.6-2.5-13.5-3.5c4.3,1.5,9.3,3.3,15.2,5.3c19.5,6.9,46.2,16.3,80.1,28l-0.4,1.3c-33.9-11.8-60.7-20.9-80.2-27.6
		c-6.1-2.1-11.2-3.8-15.6-5.3c3.8,1.7,8.1,3.6,13.1,5.8c18.6,8.2,44,19.5,75.9,33.3l-0.5,1.2c-31.9-13.9-57.1-24.7-75.6-32.6
		c-4.8-2.1-9-3.9-12.7-5.4c5.6,3,12.4,6.6,20.9,11.1c21.3,11.3,50.5,26.9,88.1,46.6l-0.6,1.2c-37.5-19.7-66.8-35-88.3-46.1
		c-9.2-4.8-16.5-8.6-22.3-11.6c3.7,2.4,8.1,5.2,13.2,8.4c17.3,11.1,41,26.2,70.9,45l-0.7,1.1c-29.9-18.8-53.9-33.7-71.4-44.6
		c-4.3-2.7-8-5-11.3-7.1c4.4,3.3,9.6,7.2,15.9,11.9c18.6,13.9,44,32.9,76.3,56.8l-0.8,1.1c-32.3-23.9-57.7-42.6-76.3-56.2
		c-7.1-5.2-12.9-9.5-17.6-12.9c4.3,3.8,9.6,8.4,16,14c17.1,15,40.6,35.5,70.6,61.5l-0.9,1c-30-26-53.9-46.4-71.3-61.4
		c-6.2-5.3-11.3-9.7-15.6-13.4c3.1,3.1,6.7,6.8,10.8,11c14.3,14.6,33.9,34.6,58.8,59.7l-0.9,0.9c-24.9-25.2-44.9-45.1-59.4-59.6
		c-4-4-7.5-7.5-10.5-10.5c2.8,3.4,6.1,7.2,9.9,11.8c13.3,15.8,31.4,37.3,54.5,64.5l-1,0.9c-23.1-27.1-41.4-48.5-54.8-64
		c-4.1-4.8-7.6-8.9-10.6-12.4c3,4.1,6.6,9.1,10.8,15c12.4,17.3,29.5,40.9,51.4,71l-1.1,0.8c-21.9-30.1-39.2-53.7-51.9-70.9
		c-4.1-5.6-7.6-10.3-10.5-14.3c2,3.2,4.2,6.8,6.7,11c10.2,16.7,24.1,39.5,41.7,68.1l-1.1,0.7c-17.6-28.5-31.8-51.2-42.1-67.7
		c-2.6-4.2-5-7.9-7-11.2c2.5,4.8,5.4,10.6,8.9,17.5c10.1,19.8,23.9,46.8,41.6,81.1l-1.2,0.6c-17.7-34.3-31.7-61.1-41.9-80.6
		c-3.5-6.8-6.5-12.4-9-17.2c1.8,4.3,3.9,9.3,6.3,15.1c8.3,19.8,19.6,46.9,34,80.9l-1.2,0.5c-14.4-34-25.9-60.8-34.4-80.4
		c-2.6-6.1-4.8-11.2-6.7-15.6c2,6,4.4,13.3,7.4,22.3c7.6,22.9,17.9,54.2,31.3,94.1L315.7,845.4z"/>
	<circle fill="#130800" cx="269.9" cy="704.7" r="10.6"/>
	<path fill="#6FFFFC" d="M326.4,607.3c0,0,0.1-0.5,0.3-1.3c0.2-0.8,0.6-2.1,1.2-3.6c1.2-3,3.4-7.3,7.2-11.6c1.9-2.1,4.2-4.2,7.2-5.9
		c3-1.6,6.5-2.4,10.2-2.6c3.6-0.2,7.3,0,10.9,0.2c3.6,0.2,7.3,0.4,10.6-0.4c3.4-0.7,6.4-2.4,8.6-5c0.6-0.6,1.1-1.3,1.5-2l0.7-1.1
		c0.2-0.4,0.4-0.7,0.6-1.1c0.8-1.5,1.6-3,2.3-4.6c1.4-3.1,2.6-6.3,4.1-9.2c1.4-2.9,3.1-5.6,5.1-7.7c0.5-0.5,1-1,1.5-1.5
		c0.6-0.4,1-0.9,1.6-1.3c0.5-0.3,1.1-0.7,1.7-1c0.6-0.3,1.1-0.5,1.6-0.7c2.1-0.9,4-1.4,5.5-2.1c1.5-0.6,2.5-1.3,3.2-1.9
		c0.3-0.3,0.6-0.5,0.7-0.7c0.2-0.2,0.2-0.2,0.2-0.2s-0.1,0.1-0.2,0.3c-0.1,0.2-0.3,0.5-0.6,0.8c-0.6,0.6-1.6,1.5-3,2.3
		c-1.4,0.8-3.3,1.6-5.3,2.6c-0.5,0.3-1,0.5-1.5,0.8c-0.5,0.3-0.9,0.6-1.5,1c-0.4,0.4-0.9,0.8-1.4,1.3c-0.5,0.4-0.9,1-1.3,1.5
		c-1.7,2.1-3.1,4.7-4.4,7.5c-1.3,2.9-2.3,6.1-3.7,9.3c-0.7,1.6-1.4,3.3-2.3,5c-0.2,0.4-0.5,0.9-0.7,1.2l-0.7,1.2l-0.2,0.3l-0.2,0.3
		l-0.4,0.6c-0.3,0.4-0.6,0.8-0.9,1.1c-1.3,1.5-2.8,2.8-4.5,3.9c-1.7,1-3.7,1.8-5.6,2.2c-3.9,0.8-7.8,0.6-11.5,0.4
		c-3.7-0.2-7.2-0.6-10.6-0.5c-3.3,0.1-6.6,0.7-9.3,2c-2.7,1.4-5,3.2-7,5.1c-3.9,3.8-6.4,7.8-7.9,10.6c-0.7,1.4-1.2,2.6-1.5,3.4
		C326.5,606.9,326.4,607.3,326.4,607.3z"/>
	<path fill="#6FFFFC" d="M376.4,583.3c0,0,1-0.1,2.6-0.3c0.8-0.1,1.8-0.2,3-0.3c1.1-0.1,2.4-0.3,3.8-0.6c1.4-0.3,2.9-0.6,4.4-1
		c1.5-0.4,3.1-1,4.6-1.7c1.5-0.7,3-1.6,4.5-2.7c1.5-1.1,3.1-2.3,4.8-3.3c1.7-1,3.5-1.9,5.3-2.6c1.8-0.7,3.7-1.2,5.6-1.5
		c1.8-0.3,3.6-0.4,5.3-0.4c1.7,0,3.2,0.1,4.6,0.2c2.8,0.1,5.2,0.1,6.8,0c1.7-0.2,2.6-0.4,2.6-0.4s-0.2,0.1-0.6,0.3
		c-0.4,0.2-1,0.4-1.8,0.7c-1.6,0.5-4,1-6.9,1.2c-1.4,0.1-3,0.2-4.6,0.4c-1.6,0.1-3.3,0.4-4.9,0.7c-1.7,0.3-3.3,0.9-5,1.6
		c-1.6,0.7-3.3,1.5-4.8,2.5c-1.6,0.9-3.1,2-4.7,3.1c-1.6,1.1-3.4,2-5.1,2.7c-1.7,0.7-3.5,1.2-5.2,1.5c-1.7,0.3-3.3,0.5-4.7,0.5
		c-2.9,0.1-5.3,0-7-0.2c-0.8-0.1-1.5-0.2-1.9-0.2C376.6,583.4,376.4,583.3,376.4,583.3z"/>
	<path fill="#6FFFFC" d="M182.4,636c0,0-1.4-1.3-3.8-3.6c-2.4-2.3-5.9-5.5-10.3-9c-2.2-1.7-4.7-3.5-7.4-5.2
		c-1.4-0.8-2.8-1.6-4.3-2.4c-0.4-0.2-0.8-0.4-1.1-0.5l-0.6-0.3l-0.3-0.1l-0.1-0.1l0,0c0.1,0.1,0,0,0,0l-0.1,0
		c-0.4-0.2-0.8-0.3-1.2-0.5l-0.6-0.2l-0.6-0.1l-1.1-0.3l-1.2-0.1c-0.4-0.1-0.8-0.1-1.2-0.1c-0.4,0-0.8,0-1.3,0
		c-1.7,0.1-3.4,0.5-5.1,1c-3.5,1-7,2.5-10.8,3.5c-1.9,0.5-3.9,0.8-5.9,0.9c-1,0-1.9,0-2.9,0c-0.9,0-1.9-0.1-2.9-0.2
		c-3.9-0.3-7.5-1.2-11-2.3c-3.4-1.2-6.7-2.6-9.6-4.2c-0.7-0.4-1.4-0.9-2.1-1.3c-0.7-0.4-1.4-0.8-2-1.3c-1.2-0.9-2.5-1.8-3.5-2.8
		c-0.5-0.5-1.1-0.9-1.6-1.4c-0.5-0.5-1-1-1.4-1.5c-0.9-0.9-1.7-1.9-2.4-2.8c-0.8-0.9-1.3-1.8-1.9-2.7c-0.3-0.4-0.6-0.8-0.8-1.2
		c-0.2-0.4-0.4-0.8-0.6-1.2c-0.4-0.7-0.8-1.4-1-2c-0.2-0.6-0.4-1.1-0.6-1.5c-0.3-0.8-0.5-1.3-0.5-1.3s0.2,0.4,0.7,1.2
		c0.2,0.4,0.5,0.9,0.8,1.4c0.3,0.6,0.8,1.1,1.2,1.8c0.2,0.3,0.5,0.7,0.7,1.1c0.3,0.4,0.6,0.7,0.9,1.1c0.6,0.8,1.2,1.6,2.1,2.4
		c0.8,0.8,1.6,1.7,2.6,2.5c0.5,0.4,1,0.9,1.5,1.3c0.5,0.4,1.1,0.8,1.6,1.3c2.2,1.7,4.8,3.3,7.6,4.7c2.8,1.5,6,2.6,9.3,3.7
		c3.3,1,6.9,1.6,10.4,1.9c0.9,0,1.7,0.2,2.7,0.1c0.9,0,1.8,0,2.8,0c1.8-0.1,3.5-0.4,5.3-0.9c3.5-0.9,7-2.3,10.7-3.4
		c1.9-0.5,3.8-0.9,5.8-1c0.5-0.1,1,0,1.5,0c0.5,0,1,0,1.5,0.1c0.5,0.1,1,0.1,1.4,0.2c0.5,0.1,1,0.3,1.4,0.4l0.7,0.2l0.6,0.3
		c0.4,0.2,0.8,0.3,1.2,0.5l0.1,0l0.1,0l0,0l0.1,0.1l0.3,0.2l0.6,0.3c0.4,0.2,0.8,0.4,1.2,0.6c1.5,0.9,3,1.7,4.3,2.7
		c2.8,1.8,5.2,3.8,7.3,5.7c4.3,3.8,7.5,7.4,9.6,9.9c1.1,1.2,1.9,2.3,2.5,2.9C182.1,635.6,182.4,636,182.4,636z"/>
	<path fill="#6FFFFC" d="M114.4,617.3c0,0-0.9,0.1-2.5,0.2c-1.6,0.1-3.8,0.3-6.4,0.6c-1.3,0.2-2.7,0.4-4.2,0.7
		c-1.5,0.3-3,0.7-4.5,1.3c-1.5,0.5-3,1.3-4.3,2.2c-0.4,0.3-1,1-1.5,1.6c-0.5,0.7-1,1.4-1.5,2.1c-0.5,0.7-1,1.5-1.7,2.3
		c-0.3,0.4-0.7,0.8-1.1,1.1c-0.2,0.2-0.4,0.4-0.7,0.5l-0.4,0.2l-0.2,0.1l-0.1,0l-0.2,0.1l-0.6,0.2l-0.3,0.1l-0.4,0.1
		c-0.5,0.1-1,0.3-1.5,0.3c-0.5,0.1-0.9,0.1-1.4,0.2c-0.5,0-0.9,0-1.4,0c-1.8,0-3.4-0.2-5-0.4c-1.5-0.2-3-0.5-4.3-0.7
		c-1.3-0.2-2.5-0.4-3.6-0.5c-1.1-0.1-2-0.1-2.8-0.1c-0.4,0-0.7,0-1,0c-0.3,0-0.6,0.1-0.8,0.1c-0.4,0.1-0.6,0.1-0.6,0.1
		s0.2-0.1,0.6-0.3c0.2-0.1,0.4-0.2,0.7-0.3c0.3-0.1,0.6-0.2,1-0.3c0.8-0.2,1.7-0.4,2.9-0.5c1.1-0.1,2.4-0.1,3.7-0.1
		c2.7,0,5.9,0.4,9,0.2c0.4,0,0.8-0.1,1.2-0.1c0.4,0,0.8-0.1,1.2-0.2c0.4-0.1,0.7-0.2,1-0.3l0.3-0.1l0.3-0.1l0.6-0.3l0.2-0.1l0.1,0
		l0,0l0,0c0.1,0-0.1,0-0.1,0l0.2-0.1c0.1,0,0.2-0.2,0.3-0.3c0.2-0.2,0.5-0.5,0.7-0.8c0.5-0.6,1-1.4,1.5-2.1c0.5-0.7,1-1.5,1.6-2.3
		c0.6-0.8,1.2-1.5,2.2-2.2c1.6-1.1,3.4-1.7,5.1-2.3c1.7-0.5,3.4-0.8,4.9-1c1.6-0.2,3.1-0.2,4.4-0.2c1.4,0,2.6,0.1,3.7,0.2
		c1.1,0.1,2.1,0.2,2.8,0.3c0.8,0.1,1.4,0.2,1.8,0.3C114.1,617.3,114.4,617.3,114.4,617.3z"/>
	<path fill="#6FFFFC" d="M168.4,669.3c0,0-0.4,0-1.2-0.1c-0.8-0.1-2-0.2-3.5-0.5c-1.5-0.3-3.3-0.6-5.4-1c-2.1-0.4-4.4-0.9-7-1.5
		c-2.5-0.5-5.3-1-8.2-1.3c-2.9-0.3-6-0.4-9.1,0c-0.8,0.1-1.5,0.3-2.3,0.4l-0.3,0.1c0.1,0,0,0,0,0l0,0l-0.1,0l-0.2,0l-0.6,0.2
		l-1.2,0.3c-1.4,0.5-2.9,1.1-4.3,2c-1.4,0.8-2.7,1.8-3.9,2.9c-1.2,1.1-2.4,2.3-3.3,3.6c-2.1,2.6-3.7,5.6-4.8,8.6
		c-0.6,1.5-1,3.1-1.4,4.7c-0.4,1.6-0.8,3.3-1.3,4.9c-0.5,1.6-1.2,3.3-2.3,4.7c-1.1,1.4-2.7,2.4-4.2,3c-3,1.2-5.9,1.4-8.5,1.7
		c-2.6,0.2-5,0.3-7.2,0.4c-2.1,0-4,0.1-5.5,0.1c-3,0.1-4.8,0.1-4.8,0.1s1.7-0.3,4.7-0.7c3-0.4,7.4-0.8,12.5-1.6
		c1.3-0.2,2.6-0.4,3.9-0.8c1.3-0.3,2.7-0.7,3.9-1.3c1.2-0.6,2.3-1.4,3.1-2.5c0.8-1.1,1.3-2.5,1.8-3.9c0.4-1.5,0.8-3.1,1.1-4.7
		c0.4-1.7,0.8-3.4,1.4-5.1c1.2-3.4,2.9-6.6,5.2-9.5c1.1-1.5,2.4-2.8,3.7-4c1.4-1.2,2.8-2.3,4.4-3.2c1.6-0.9,3.2-1.6,5-2.2l1.2-0.3
		l0.6-0.2l0.4-0.1l0.3-0.1c0.9-0.1,1.7-0.3,2.6-0.4c3.4-0.4,6.7-0.1,9.7,0.4c3,0.5,5.8,1.2,8.3,1.9c2.5,0.7,4.8,1.4,6.9,2
		c2,0.6,3.8,1.1,5.3,1.6c1.5,0.4,2.6,0.7,3.4,0.9C167.9,669.2,168.4,669.3,168.4,669.3z"/>
	<path fill="#6FFFFC" d="M113.7,674.7c0,0-0.6,0-1.7,0c-1.1,0-2.6-0.1-4.5-0.3c-0.9-0.1-1.9-0.1-2.9-0.1c-0.5,0-1,0.1-1.5,0.1
		l-0.4,0.1c0,0-0.2,0-0.1,0l-0.2,0l-0.4,0.1c-0.1,0-0.2,0.1-0.3,0.1c-0.9,0.3-1.7,0.8-2.7,1.5c-0.9,0.7-1.9,1.5-3.3,2.2
		c-0.4,0.1-0.7,0.3-1.1,0.4l-0.3,0.1l-0.3,0l-0.5,0l-0.5,0l-0.6,0c-0.4,0-0.8,0-1.1-0.1c-1.4-0.1-2.6-0.6-3.7-1
		c-1.1-0.5-2.1-1-3.1-1.5c-0.9-0.5-1.8-1-2.6-1.4c-0.8-0.4-1.5-0.8-2.2-1.1c-0.7-0.3-1.3-0.5-1.8-0.7c-0.5-0.2-0.9-0.3-1.2-0.4
		c-0.3-0.1-0.4-0.1-0.4-0.1s0.2,0,0.4,0c0.3,0,0.7-0.1,1.3,0c0.6,0,1.2,0.1,2,0.2c0.8,0.1,1.6,0.3,2.5,0.6c1.8,0.5,3.8,1.4,5.9,2
		c1,0.3,2.1,0.6,3.1,0.6c0.3,0,0.5,0,0.7,0l0.3,0c0.1,0,0.3,0,0.4,0l0.5-0.1l0.1,0l0.1,0l0,0l0,0c0,0-0.2,0-0.1,0l0.2,0
		c0.2,0,0.4-0.1,0.6-0.2c0.9-0.3,1.8-1.1,2.8-1.8c1.1-0.7,2.3-1.4,3.7-1.7c0.2,0,0.4-0.1,0.5-0.1l0.4-0.1l0.2,0c0.2,0,0.2,0,0.3,0
		l0.5,0c0.6,0,1.2,0,1.8,0.1c1.1,0.1,2.1,0.4,3,0.6c1.8,0.5,3.3,1,4.3,1.4C113.1,674.5,113.7,674.7,113.7,674.7z"/>
	<path fill="#6FFFFC" d="M189,758.7c0,0-0.1,0-0.4-0.1c-0.2-0.1-0.6-0.2-1-0.2c-0.9-0.1-2.3-0.2-4,0c-1.7,0.1-3.8,0.4-6.2,0.9
		c-2.4,0.4-5,1.1-8.1,1.6c-5.9,1-12.9,1.9-19.9,4.2c-3.4,1.2-6.9,2.8-9.7,5.2l-1,0.8l-1,1.1l-0.7,1l-0.7,1.2
		c-0.9,1.6-1.6,3.4-2.2,5.3c-0.6,1.9-1.2,3.8-1.9,5.7c-0.7,1.9-1.5,3.9-2.8,5.7c-0.3,0.5-0.7,0.9-1.1,1.3l-0.3,0.3l0,0
		c0,0,0.1,0-0.1,0.1l-0.1,0.1l-0.1,0.1c-0.1,0.1-0.2,0.1-0.3,0.2l-0.5,0.3c-1.2,0.7-2.2,0.9-3.3,1.1c-2.1,0.3-4.1,0.2-6,0.1
		c-3.9-0.3-7.4-1.1-10.8-1.9c-1.7-0.4-3.3-0.8-4.9-1.2c-1.6-0.4-3-0.7-4.5-0.9c-3-0.5-5.7-1.1-8.1-1.4c-2.4-0.3-4.5-0.5-6.2-0.5
		c-1.7,0-3.1,0.2-4,0.3c-0.9,0.2-1.4,0.3-1.4,0.3s0.5-0.2,1.4-0.5c0.9-0.3,2.3-0.6,4-0.8c1.8-0.2,3.9-0.2,6.4-0.1
		c2.5,0.2,5.2,0.5,8.2,0.9c1.5,0.1,3.1,0.4,4.7,0.7c1.6,0.3,3.2,0.6,4.9,0.9c3.4,0.6,6.9,1.2,10.6,1.5c1.8,0.1,3.7,0.1,5.4-0.2
		c0.8-0.1,1.7-0.4,2.2-0.7c0.1,0,0.1-0.1,0.2-0.1c0.1-0.1,0.2-0.1,0.3-0.2l0.1-0.1l0.1-0.1c-0.2,0.1,0,0-0.1,0l0,0l0.2-0.2
		c0.3-0.3,0.6-0.6,0.8-1c1-1.4,1.7-3.1,2.4-5c0.6-1.8,1.2-3.8,1.8-5.7c0.6-1.9,1.4-3.9,2.4-5.8l0.9-1.4l1-1.4l1-1.1l0.1-0.1
		c0.1-0.1,0.1-0.1,0.1-0.1l0,0l0.2-0.1l0.3-0.3l0.6-0.5c0.4-0.4,0.8-0.7,1.2-1c0.4-0.3,0.8-0.6,1.3-0.9c0.9-0.5,1.8-1,2.7-1.4
		c1.8-0.9,3.7-1.5,5.5-2.2c3.7-1.1,7.3-1.8,10.8-2.3c3.4-0.5,6.7-0.8,9.7-1.1c1.5-0.1,2.9-0.4,4.3-0.5c1.4-0.2,2.7-0.3,3.9-0.5
		c2.4-0.3,4.6-0.4,6.4-0.3c1.8,0,3.2,0.2,4.1,0.5c0.5,0.1,0.8,0.2,1,0.3C188.9,758.6,189,758.7,189,758.7z"/>
	<path fill="#6FFFFC" d="M131.7,778c0,0,0,0.1-0.1,0.4c-0.1,0.3-0.2,0.6-0.2,1.1c-0.1,0.5-0.1,1-0.2,1.7c0,0.6,0,1.4,0.1,2.1
		c0.1,0.8,0.3,1.6,0.4,2.5c0.2,0.9,0.5,1.8,0.8,2.7c0.6,1.9,1.4,3.9,2.1,6c0.3,1.1,0.7,2.1,0.9,3.2c0.3,1.1,0.5,2.2,0.6,3.3
		c0.1,1.1,0.2,2.1,0.1,3.2c0,0.5-0.1,1-0.1,1.5c-0.1,0.5-0.2,0.9-0.3,1.4c-0.2,0.9-0.5,1.6-0.8,2.2c-0.2,0.3-0.3,0.6-0.5,0.9
		c-0.2,0.2-0.3,0.5-0.5,0.7c-0.3,0.4-0.6,0.7-0.7,0.9c-0.2,0.2-0.3,0.3-0.3,0.3s0-0.1,0.1-0.4c0.1-0.3,0.2-0.6,0.4-1.1
		c0.1-0.5,0.3-1,0.4-1.7c0.1-0.6,0.2-1.4,0.2-2.1c0-0.8,0-1.6-0.1-2.5c-0.1-0.9-0.3-1.8-0.5-2.8c-0.5-1.9-1.1-3.9-1.8-6
		c-0.7-2.1-1.4-4.2-1.8-6.3c-0.2-1-0.4-2.1-0.4-3.1c-0.1-1-0.1-2,0.1-2.8c0.1-0.9,0.3-1.7,0.5-2.3c0.2-0.7,0.5-1.2,0.8-1.7
		c0.2-0.5,0.5-0.7,0.6-1C131.6,778.1,131.7,778,131.7,778z"/>
	<path fill="#6FFFFC" d="M210.4,704c0,0-0.2-0.2-0.6-0.6c-0.4-0.4-0.9-0.9-1.7-1.5c-0.8-0.6-1.7-1.2-2.9-1.8
		c-1.2-0.6-2.6-1.2-4.1-1.7c-1.6-0.5-3.3-0.9-5.1-1.2c-1.9-0.3-3.8-0.7-5.8-0.7c-1.9-0.1-3.8,0.3-5.4,1.3c-0.2,0.1-0.4,0.2-0.6,0.4
		l-0.1,0.1l-0.1,0.1l0,0l0,0c-0.1,0.1,0.1-0.1,0.1,0l-0.3,0.3c-0.2,0.2-0.2,0.2-0.4,0.4c-0.1,0.2-0.3,0.4-0.4,0.6
		c-0.5,0.8-1,1.8-1.5,2.8c-0.6,1-1.2,2.1-2.3,3.1l-0.5,0.3l-0.1,0c0.1,0-0.2,0.1-0.1,0.1l0,0l-0.1,0L178,706l-0.7,0.4
		c-0.4,0.3-1.2,0.4-1.8,0.6c-2.4,0.7-4.7,0.7-6.9,0.6c-2.2-0.1-4.2-0.5-6.1-0.9c-1.9-0.4-3.7-0.8-5.3-1.3c-1.6-0.4-3.1-0.8-4.4-1.2
		c-1.3-0.4-2.5-0.7-3.4-0.9c-0.9-0.2-1.7-0.4-2.2-0.5c-0.5-0.1-0.8-0.2-0.8-0.2s0.3,0,0.8,0c0.5,0,1.3,0,2.3,0.1
		c1,0.1,2.2,0.2,3.5,0.3c1.4,0.2,2.9,0.4,4.5,0.6c1.6,0.2,3.4,0.5,5.3,0.8c1.9,0.2,3.9,0.4,5.9,0.5c2,0,4.1-0.2,5.9-0.7
		c0.4-0.2,0.8-0.2,1.3-0.5l0.7-0.4l0.2-0.1l0.1,0l0,0c0,0-0.2,0.1-0.1,0l0,0c0.1,0,0.1-0.1,0.2-0.1c0.5-0.5,1.1-1.3,1.6-2.3
		c0.5-0.9,1-2,1.7-3c0.2-0.3,0.4-0.5,0.6-0.8c0.2-0.2,0.5-0.6,0.8-0.8l0.3-0.3l0.1-0.1l0,0l0,0l0.1-0.1l0.2-0.1
		c0.3-0.2,0.5-0.3,0.8-0.5c2.2-1.3,4.8-1.6,7-1.4c2.3,0.2,4.2,0.7,6.1,1.2c1.9,0.5,3.7,1.1,5.2,1.8c1.6,0.7,3,1.5,4.1,2.3
		c1.1,0.8,2,1.7,2.7,2.4c0.7,0.7,1.1,1.4,1.4,1.8C210.2,703.8,210.4,704,210.4,704z"/>
	<path fill="#6FFFFC" d="M169,680.7c0,0,0.1,0,0.3,0c0.2,0,0.5,0,0.8,0.2c0.3,0.1,0.8,0.2,1.2,0.4c0.5,0.2,1,0.5,1.5,0.8
		c1,0.7,2.1,1.8,2.9,3.1c0.9,1.3,1.6,2.7,2.2,4.1c0.6,1.4,1.2,2.8,1.8,3.9c0.3,0.6,0.6,1.1,1,1.6c0.3,0.5,0.7,0.9,1.1,1.3
		c0.4,0.3,0.8,0.7,1.1,0.9c0.4,0.2,0.7,0.4,1,0.6c0.3,0.2,0.6,0.2,0.7,0.3c0.2,0.1,0.3,0.1,0.3,0.1s-0.1,0-0.3,0.1
		c-0.2,0-0.5,0.1-0.8,0.1c-0.2,0-0.4,0-0.6,0c-0.2,0-0.5-0.1-0.7-0.1c-0.5-0.1-1.1-0.2-1.7-0.5c-1.2-0.6-2.4-1.6-3.3-2.9
		c-0.5-0.6-0.9-1.3-1.3-2c-0.4-0.7-0.7-1.4-1.1-2.1c-0.6-1.4-1.2-2.8-1.8-4c-0.6-1.2-1.2-2.3-1.8-3.2c-0.3-0.4-0.6-0.8-0.9-1.2
		c-0.3-0.3-0.6-0.6-0.8-0.8c-0.2-0.2-0.5-0.4-0.6-0.5C169.1,680.7,169,680.7,169,680.7z"/>
	<path fill="#6FFFFC" d="M221.7,600.7c0,0,0-0.3-0.1-0.8c0-0.6-0.2-1.4-0.3-2.3c-0.2-1-0.5-2.2-1-3.5c-0.5-1.3-1.2-2.7-2.1-4.2
		c-0.9-1.5-1.9-3-3.1-4.6c-1.2-1.6-2.5-3.2-3.9-5c-1.3-1.7-2.8-3.5-4.1-5.5c-1.3-1.9-2.6-4-3.7-6.3c-1-2.3-1.7-4.7-1.9-7.2l0-0.2
		l0-0.1l0-0.1l0-0.1l0-0.4l0-0.9c0-0.3,0-0.6,0.1-0.9l0.1-1c0.1-0.7,0.2-1.2,0.3-1.8c0.1-0.6,0.3-1.1,0.5-1.7c0.7-2.2,1.7-4.2,2.6-6
		c0.9-1.8,1.8-3.5,2.6-5c0.8-1.6,1.4-3,1.9-4.3c0.1-0.3,0.2-0.7,0.3-1c0.1-0.3,0.2-0.6,0.3-0.9c0.2-0.6,0.3-1.1,0.4-1.6
		c0.1-0.5,0.2-0.9,0.2-1.3c0-0.4,0.1-0.7,0.1-1c0.1-0.6,0.1-0.8,0.1-0.8s0,0.3,0.1,0.8c0,0.3,0.1,0.6,0.1,1c0,0.4,0,0.9,0,1.4
		c0,0.5-0.1,1.1-0.1,1.7c0,0.3-0.1,0.6-0.1,1c-0.1,0.3-0.1,0.7-0.2,1c-0.3,1.4-0.8,3-1.4,4.7c-0.6,1.7-1.4,3.4-2.2,5.3
		c-0.8,1.8-1.5,3.8-2.1,5.8c-0.1,0.5-0.3,1-0.3,1.5c-0.1,0.5-0.2,1-0.2,1.5l-0.1,0.7c0,0.2,0,0.5,0,0.8l0,0.9l0,0.4l0,0.1l0,0.1l0,0
		c0-0.2,0,0,0-0.1l0,0.2c0.2,2.1,0.8,4.2,1.8,6.2c0.9,2,2.1,4,3.3,5.9c1.3,1.9,2.6,3.7,3.8,5.5c2.6,3.6,4.9,7.1,6.4,10.4
		c0.8,1.6,1.3,3.2,1.6,4.7c0.3,1.4,0.5,2.7,0.5,3.8c0,1,0,1.9-0.1,2.4C221.7,600.4,221.7,600.7,221.7,600.7z"/>
	<path fill="#6FFFFC" d="M206.4,564c0,0,0.5-0.8,1.5-2.3c0.9-1.5,2.2-3.6,4-6c0.9-1.2,1.9-2.5,3.2-3.8c0.6-0.6,1.3-1.2,2.1-1.9
		c0.4-0.3,0.7-0.5,1.1-0.8c0.4-0.3,0.8-0.6,1.3-0.8c1.7-1,3.6-1.7,5.6-2.3c1.9-0.5,3.9-1,5.8-1.4c0.9-0.2,1.9-0.5,2.7-0.7l1.4-0.5
		l1.2-0.5c1.7-0.8,3.3-1.6,4.9-2.5c1.5-1,3-1.9,4.3-2.9c1.3-1,2.6-2,3.8-2.9c2.3-1.8,4.3-3.4,5.7-4.4c0.7-0.5,1.3-0.9,1.6-1.2
		c0.4-0.3,0.6-0.4,0.6-0.4s-0.7,0.7-1.8,2c-1.2,1.3-2.8,3.1-4.9,5.2c-2.1,2.1-4.7,4.5-7.8,6.7c-1.6,1.1-3.3,2.1-5.1,3
		c-0.5,0.2-1,0.4-1.5,0.6l-1.4,0.5c-1,0.4-2,0.6-3,0.9c-2,0.5-3.9,0.8-5.7,1.3c-1.8,0.5-3.5,1-5.1,1.8c-0.4,0.2-0.7,0.4-1.1,0.6
		c-0.3,0.2-0.7,0.5-1.1,0.7c-0.6,0.4-1.3,1-2,1.5c-1.2,1.1-2.4,2.2-3.4,3.2c-2,2.1-3.6,4-4.8,5.3c-0.6,0.6-1.1,1.1-1.4,1.4
		C206.5,563.8,206.4,564,206.4,564z"/>
	<path fill="#6FFFFC" d="M314.4,554c0,0,0-0.2,0.1-0.5c0-0.3,0.2-0.8,0.2-1.3c0-0.6,0.1-1.2-0.1-2c0-0.4-0.1-0.8-0.2-1.2
		c-0.1-0.4-0.2-0.8-0.3-1.3c-0.3-0.9-0.7-1.8-1.1-2.8c-0.4-1-1-2-1.5-3.2c-0.5-1.1-1.1-2.3-1.5-3.5c-0.5-1.2-0.9-2.6-1.1-4
		c-0.2-1.4-0.3-2.9,0-4.4c0.1-0.4,0.1-0.7,0.2-1.1c0.1-0.3,0.2-0.6,0.3-0.9c0.1-0.3,0.3-0.7,0.4-1c0.2-0.3,0.3-0.6,0.5-0.9
		c0.7-1.2,1.4-2.1,2.1-3c0.7-0.9,1.4-1.7,1.9-2.5c0.6-0.8,1-1.5,1.4-2.2c0.2-0.3,0.3-0.7,0.5-1c0.1-0.3,0.3-0.6,0.3-0.9
		c0.2-0.5,0.3-1,0.4-1.3c0.1-0.3,0.1-0.5,0.1-0.5s0,0.2,0.1,0.5c0,0.3,0.1,0.8,0.1,1.4c0,0.6-0.1,1.3-0.3,2.1
		c-0.2,0.8-0.5,1.7-1,2.6c-0.9,1.9-2.2,3.8-3.2,5.8c-0.1,0.3-0.2,0.5-0.3,0.8l-0.3,0.7c-0.1,0.3-0.2,0.6-0.2,0.9
		c-0.1,0.2-0.1,0.5-0.1,0.8c-0.2,1.1-0.1,2.2,0.1,3.4c0.2,1.2,0.5,2.3,0.9,3.5c0.4,1.2,0.8,2.3,1.2,3.5c0.4,1.2,0.8,2.3,1.1,3.4
		c0.3,1.1,0.5,2.2,0.7,3.3c0.1,1,0.1,2,0,2.8c0,0.8-0.4,1.6-0.5,2.1c-0.2,0.6-0.5,0.9-0.6,1.2C314.4,553.8,314.4,554,314.4,554z"/>
	<path fill="#6FFFFC" d="M389,706.7c0,0,0.3,0,0.8,0.1c0.5,0,1.2,0.1,2.2-0.1c0.9-0.1,2-0.5,3.2-1c1.2-0.5,2.5-1.2,4.1-1.9
		c0.8-0.3,1.7-0.6,2.5-0.9c0.8-0.2,1.8-0.4,2.8-0.6c1-0.2,2-0.3,3-0.3c1.1,0,2.2,0.1,3.3,0.3c2.2,0.5,4.3,1.3,6.2,2.3
		c0.5,0.2,1,0.5,1.5,0.7l0.4,0.2l0.3,0.1l0.7,0.3l1.5,0.7l1.4,0.5c0.9,0.4,2,0.6,3,1c1,0.2,2,0.5,3,0.7c2,0.4,4.1,0.5,6.1,0.7
		c2,0,3.9,0.1,5.8,0c1.9-0.1,3.6-0.1,5.3-0.2c3.3-0.1,6-0.2,8-0.1c1,0,1.7,0.1,2.2,0.1c0.5,0,0.8,0,0.8,0s-4.3,0.7-10.8,1.7
		c-1.6,0.2-3.4,0.5-5.3,0.7c-1.9,0.2-3.9,0.4-6,0.4c-1.1,0-2.1,0-3.2-0.1c-0.5,0-1.1-0.1-1.6-0.1c-0.5-0.1-1.1-0.2-1.7-0.2
		c-1.1-0.1-2.2-0.4-3.3-0.7c-1.1-0.3-2.2-0.6-3.3-1l-1.6-0.6l-1.5-0.7l-0.7-0.3l-0.4-0.2l-0.4-0.2c-0.5-0.2-1-0.5-1.4-0.7
		c-1.9-0.9-3.7-1.8-5.5-2.3c-1.8-0.4-3.7-0.5-5.4-0.4c-0.9,0.1-1.7,0.2-2.6,0.3c-0.9,0.1-1.6,0.3-2.4,0.5c-1.5,0.5-3,1-4.3,1.3
		c-1.3,0.4-2.5,0.5-3.5,0.5c-1,0-1.8-0.2-2.2-0.3C389.3,706.8,389,706.7,389,706.7z"/>
	<path fill="#6FFFFC" d="M395.7,735.3c0,0,0.3,0,1-0.1c0.3,0,0.7-0.1,1.2-0.1c0.5,0,1,0,1.6,0c1.2,0,2.7,0.1,4.4,0.5
		c0.8,0.1,1.7,0.4,2.7,0.7c0.9,0.3,1.9,0.6,2.8,1.1c1.9,0.8,4,2,5.9,3.4c2,1.4,3.9,3.1,5.7,5c1.8,1.9,3.6,3.9,5.3,6.1
		c1.7,2.1,3.4,4.4,5,6.6c1.6,2.2,3.2,4.5,4.8,6.6c1.6,2.1,3.2,4.2,4.9,6.1c1.7,1.9,3.4,3.6,5.2,5.1c1.7,1.6,3.4,3,5,4.2
		c1.6,1.2,3.2,2.1,4.7,2.6c1.5,0.6,2.9,0.7,4.1,0.7c0.6-0.1,1.1-0.1,1.5-0.3c0.4-0.1,0.8-0.2,1.1-0.4c0.6-0.3,0.9-0.4,0.9-0.4
		s-0.3,0.2-0.8,0.6c-0.3,0.2-0.6,0.4-1.1,0.6c-0.2,0.1-0.4,0.2-0.7,0.3c-0.3,0.1-0.6,0.1-0.9,0.2c-1.2,0.2-2.8,0.3-4.5-0.2
		c-1.7-0.4-3.5-1.2-5.3-2.3c-1.8-1.1-3.7-2.4-5.6-3.9c-0.5-0.4-0.9-0.7-1.4-1.1c-0.5-0.4-1-0.8-1.4-1.2c-1-0.8-1.9-1.8-2.8-2.7
		c-1.8-1.9-3.6-4-5.3-6.1c-1.7-2.2-3.3-4.4-4.9-6.6c-1.6-2.2-3.2-4.4-4.8-6.6c-1.6-2.1-3.3-4.2-5-6c-1.7-1.9-3.4-3.6-5.2-5
		c-1.8-1.5-3.6-2.7-5.3-3.6c-1.8-1-3.5-1.7-5-2.2c-1.6-0.5-3-0.8-4.2-1c-0.6-0.1-1.1-0.2-1.6-0.2c-0.5,0-0.9-0.1-1.2-0.1
		C396,735.4,395.7,735.3,395.7,735.3z"/>
	<path fill="#6FFFFC" d="M425,752c0,0,0.2,0.8,0.4,2.2c0.1,0.7,0.2,1.6,0.2,2.6c0,1,0.1,2.1,0,3.4c0,2.5-0.3,5.3-0.5,8.3
		c-0.1,1.5-0.1,3-0.1,4.6l0,1.2l0.1,1.1c0,0.8,0.2,1.5,0.3,2.3c0.2,1.5,0.6,3,1.1,4.4c0.2,0.7,0.6,1.4,0.9,2.1
		c0.3,0.7,0.7,1.3,1,1.9c0.7,1.3,1.5,2.6,2.2,3.8c0.7,1.3,1.2,2.6,1.6,3.8c0.6,2.5,0.5,4.6,0.4,6.1c-0.1,1.4-0.3,2.2-0.3,2.2
		s-0.1-0.8-0.3-2.2c-0.2-1.4-0.5-3.4-1.4-5.5c-0.4-1.1-1.1-2.1-1.8-3.2c-0.8-1.1-1.7-2.2-2.5-3.6c-0.4-0.7-0.9-1.3-1.3-2.1
		c-0.4-0.7-0.8-1.5-1.1-2.3c-0.6-1.6-1.1-3.3-1.4-5c-0.1-0.9-0.2-1.7-0.3-2.6l-0.1-1.3l0-1.3c0-1.7,0.2-3.3,0.4-4.8
		c0.2-1.5,0.5-3,0.7-4.4c0.2-1.4,0.5-2.7,0.7-3.9c0.2-1.2,0.4-2.3,0.5-3.3c0.1-1,0.2-1.8,0.3-2.5C424.9,752.8,425,752,425,752z"/>
	<path fill="#6FFFFC" d="M310.4,766c0,0,0.3,0.3,0.7,0.9c0.5,0.6,1.2,1.5,2.1,2.6c1.9,2.2,4.8,5.1,8.6,8.2c1.9,1.6,4,3.2,6.3,4.8
		c0.3,0.2,0.6,0.4,0.9,0.6l0.5,0.3l0.4,0.3c0.6,0.5,1.2,0.9,1.7,1.4c1.2,1,2.3,2.1,3.4,3.4c2.1,2.5,3.8,5.5,4.8,8.8
		c1,3.2,1.6,6.5,2.3,9.7c0.7,3.2,1.4,6.4,2.4,9.4c1,3,2.1,6,3.5,8.7c1.3,2.7,2.8,5.2,4.5,7.4c1.7,2.2,3.4,4.1,5.3,5.5
		c1.9,1.5,3.9,2.4,5.7,3c1.9,0.6,3.6,0.7,5,0.7c1.4,0,2.6-0.2,3.3-0.3c0.8-0.1,1.2-0.2,1.2-0.2s-0.4,0.1-1.1,0.4
		c-0.4,0.1-0.8,0.2-1.4,0.4c-0.5,0.2-1.2,0.2-1.9,0.4c-1.5,0.2-3.3,0.2-5.3-0.2c-2-0.4-4.3-1.3-6.4-2.7c-1.1-0.7-2.1-1.5-3.2-2.4
		c-1-0.9-2-2-2.9-3.1c-1.9-2.2-3.6-4.8-5.1-7.6c-1.5-2.8-2.8-5.8-3.9-8.9c-1.1-3.2-1.9-6.4-2.6-9.7c-0.7-3.2-1.2-6.5-2.2-9.5
		c-0.4-1.5-1-2.9-1.7-4.3c-0.4-0.7-0.7-1.3-1.1-1.9c-0.4-0.6-0.8-1.2-1.3-1.8c-0.9-1.2-1.9-2.2-3-3.2c-0.5-0.5-1.1-1-1.6-1.5
		l-0.4-0.4l-0.4-0.3c-0.3-0.2-0.6-0.5-0.8-0.7c-2.2-1.8-4.2-3.6-6.1-5.3c-3.7-3.4-6.3-6.7-7.9-9.1c-0.8-1.2-1.4-2.2-1.8-2.8
		C310.6,766.4,310.4,766,310.4,766z"/>
	<path fill="#6FFFFC" d="M337.7,796c0,0,0.2-0.2,0.6-0.5c0.2-0.2,0.4-0.4,0.8-0.6c0.3-0.2,0.7-0.5,1.1-0.7c0.8-0.5,2-0.9,3.4-1.1
		c1.4-0.2,3-0.2,4.6,0.2c1.7,0.3,3.4,1,5.1,1.8c1.7,0.8,3.5,1.9,5.2,3c1.7,1.1,3.4,2.3,5.2,3.6c1.7,1.2,3.5,2.4,5.3,3.4
		c0.4,0.2,0.9,0.5,1.3,0.7l0.3,0.2l0.1,0l0,0c-0.1,0,0,0,0,0l0,0l0.2,0.1l0.8,0.3l0.8,0.3c0.2,0.1,0.5,0.1,0.7,0.2
		c0.5,0.1,0.9,0.3,1.4,0.3c2,0.4,4,0.5,5.9,0.5c1.9,0,3.9-0.2,5.7-0.4c1.8-0.3,3.5-0.5,5.1-0.8c3.1-0.6,5.8-1.3,7.6-1.7
		c1.9-0.4,2.9-0.7,2.9-0.7s-1,0.5-2.7,1.2c-1.7,0.7-4.3,1.8-7.4,2.8c-1.6,0.5-3.3,1-5.1,1.4c-1.9,0.4-3.8,0.8-5.9,0.8
		c-2.1,0.1-4.3,0.1-6.5-0.3c-0.6-0.1-1.1-0.3-1.7-0.4c-0.3-0.1-0.6-0.1-0.9-0.2l-0.8-0.3l-0.8-0.3l-0.2-0.1l-0.2-0.1l-0.1,0
		l-0.4-0.2c-0.5-0.2-1.1-0.5-1.6-0.8c-2-1.1-3.8-2.4-5.5-3.7c-1.7-1.3-3.4-2.5-5-3.7c-1.6-1.2-3.2-2.3-4.7-3.2
		c-1.5-0.9-3.1-1.6-4.5-2.1c-1.5-0.5-2.9-0.7-4.1-0.7c-1.2,0-2.4,0.2-3.2,0.5c-0.4,0.1-0.8,0.3-1.2,0.4c-0.3,0.1-0.6,0.3-0.8,0.4
		C337.9,795.9,337.7,796,337.7,796z"/>
	<path fill="#6FFFFC" d="M273,788c0,0-0.3,0.2-0.9,0.7c-0.6,0.4-1.4,1.1-2.3,2c-0.9,0.9-1.9,2.1-2.9,3.6c-1,1.5-1.8,3.4-2.4,5.5
		c-0.6,2.1-1,4.5-1.1,7c-0.2,2.5-0.1,5.2,0.1,8c0.2,2.8,0.5,5.7,0.8,8.6c0.3,3,0.6,6,0.9,9c0.2,3,0.2,6.2-0.2,9.3
		c-0.3,3-0.9,5.9-1.5,8.8c-0.6,2.8-1.3,5.5-2.1,8c-0.8,2.5-1.7,4.8-2.7,6.9c-1,2.1-2,4-3.1,5.5c-1.1,1.5-2.3,2.7-3.4,3.5
		c-1.1,0.8-2.1,1.2-2.8,1.4c-0.7,0.1-1.1,0.2-1.1,0.2s0.4-0.1,1-0.3c0.6-0.3,1.5-0.8,2.5-1.7c0.9-0.9,1.9-2.1,2.8-3.7
		c0.9-1.6,1.7-3.4,2.5-5.5c1.5-4.2,2.8-9.3,3.8-14.8c0.5-2.8,0.9-5.6,1.2-8.5c0.3-2.9,0.2-5.8,0.1-8.8c-0.2-3-0.5-6-0.8-8.9
		c-0.3-3-0.5-5.9-0.6-8.8c-0.2-5.7,0.3-11.3,2-15.7c0.8-2.2,1.9-4.1,3.1-5.6c1.2-1.5,2.4-2.6,3.5-3.4c1.1-0.8,2-1.4,2.6-1.7
		C272.7,788.2,273,788,273,788z"/>
	<path fill="#6FFFFC" d="M260.4,807.3c-3,0.2-5.9,0.3-8.9,0.5c-1.5,0.1-2.9,0.3-4.4,0.5c-1.4,0.2-2.9,0.5-4.3,0.9
		c-0.7,0.2-1.4,0.4-2,0.6c-0.7,0.2-1.3,0.5-1.9,0.8c-0.6,0.3-1.2,0.6-1.8,1c-0.6,0.4-1.1,0.8-1.5,1.3c-0.2,0.2-0.4,0.5-0.7,0.7
		c-0.2,0.3-0.4,0.5-0.6,0.8c-0.3,0.5-0.6,1.1-0.8,1.7c-0.2,0.6-0.3,1.2-0.4,1.9c-0.1,0.7-0.1,1.3-0.1,2l0,1.8l-1.8-0.4
		c-2.5-0.6-4.9-1.5-7.2-2.4c-2.3-0.9-4.6-1.8-6.9-2.7c-2.3-0.8-4.6-1.6-6.9-2c-2.3-0.4-4.6-0.5-6.7,0.1c-1.1,0.3-2.1,0.7-3,1.4
		c-0.9,0.6-1.8,1.3-2.6,2.2c-0.8,0.8-1.4,1.8-2.1,2.8c-0.3,0.5-0.5,1-0.7,1.5c-0.2,0.5-0.3,1.1-0.4,1.7c-0.2,1.2-0.4,2.5-0.8,3.7
		c-0.5,1.3-1.2,2.4-2,3.3c-1.6,2-3.5,3.6-5,5.6c1.2-2.2,2.8-4.1,4.1-6.1c0.3-0.5,0.6-1,0.9-1.5c0.3-0.5,0.5-1.1,0.6-1.6
		c0.3-1.1,0.3-2.3,0.5-3.6c0.1-0.6,0.2-1.3,0.4-2c0.2-0.6,0.5-1.3,0.7-1.9c0.6-1.1,1.3-2.3,2.1-3.3c0.8-1.1,1.8-2,2.9-2.8
		c1.1-0.8,2.4-1.4,3.7-1.8c1.3-0.4,2.7-0.6,4-0.7c1.3,0,2.7,0,4,0.3c2.6,0.4,5,1.2,7.4,2c2.4,0.8,4.7,1.8,6.9,2.7
		c2.3,0.9,4.5,1.8,6.8,2.4l-1.7,1.4c0-0.8,0-1.6,0.2-2.5c0.1-0.8,0.3-1.6,0.6-2.4c0.3-0.8,0.7-1.5,1.2-2.3c0.2-0.3,0.5-0.7,0.8-1
		c0.3-0.3,0.6-0.6,0.9-0.9c0.6-0.5,1.3-1,2-1.4c0.7-0.4,1.4-0.8,2.1-1.1c0.7-0.3,1.5-0.6,2.2-0.8c0.7-0.2,1.5-0.4,2.3-0.5
		c1.5-0.3,3-0.4,4.5-0.5c1.5-0.1,3-0.1,4.5-0.1c1.5,0,3,0.1,4.5,0.2C257.4,807,258.9,807.2,260.4,807.3z"/>
	<path fill="#6FFFFC" d="M212.4,787.3c0,0,0.1-0.1,0.4-0.3c0.3-0.2,0.6-0.5,1.2-0.9c0.5-0.3,1.2-0.7,2.1-1c0.9-0.3,2-0.4,3.1-0.3
		c1.2,0.2,2.4,0.6,3.5,1.4c1.1,0.7,2.1,1.6,3.1,2.6c1.9,1.9,3.6,4.2,5.5,6c0.9,0.9,1.9,1.7,3,2.2c0.3,0.1,0.5,0.3,0.8,0.3
		c0.1,0,0.3,0.1,0.4,0.1c0.1,0,0.4,0.1,0.5,0.1c0.4,0.1,1,0.1,1.6,0.2c0.6,0,1.4,0,2.2,0.2c0.8,0.2,1.6,0.6,2.1,1.1l0.1,0.1l0.2,0.1
		l0.2,0.2l0.2,0.2l0.2,0.2c0.3,0.3,0.4,0.6,0.6,0.9c0.3,0.6,0.5,1.1,0.6,1.7c0.6,2.1,0.8,3.9,1,5.1c0.1,0.6,0.2,1.1,0.2,1.4
		c0.1,0.3,0.1,0.5,0.1,0.5s-0.4-0.6-0.9-1.7c-0.5-1.1-1.1-2.8-2-4.6c-0.2-0.5-0.5-0.9-0.8-1.3c-0.1-0.2-0.3-0.4-0.4-0.5
		c0,0,0-0.1-0.1-0.1l-0.2-0.1l-0.2-0.1l0,0c0,0,0.1,0.1,0.1,0.1l0,0l0,0l-0.1,0c-0.8-0.5-1.5-0.5-2.9-0.4c-0.7,0.1-1.5,0.1-2.3-0.1
		c-0.2,0-0.4-0.1-0.5-0.1c-0.3-0.1-0.4-0.1-0.6-0.2c-0.4-0.1-0.8-0.3-1.1-0.4c-1.5-0.6-2.7-1.6-3.8-2.6c-2.2-2.1-3.8-4.4-5.4-6.3
		c-0.8-1-1.6-1.9-2.4-2.6c-0.8-0.7-1.7-1.2-2.6-1.5c-0.9-0.3-1.7-0.3-2.5-0.3c-0.8,0.1-1.5,0.2-2.1,0.4c-0.6,0.2-1,0.3-1.3,0.5
		C212.5,787.3,212.4,787.3,212.4,787.3z"/>
	<path fill="#6FFFFC" d="M306.4,741.3c0,0,0.3-0.3,0.9-1c0.3-0.3,0.7-0.7,1.1-1.2c0.4-0.5,0.8-1.1,1.3-1.7c0.4-0.7,0.9-1.4,1.4-2.3
		c0.4-0.9,1-1.8,1.4-2.8c1-2,2-4.4,3.2-6.9c1.2-2.5,2.7-5.3,4.9-7.9c1.1-1.3,2.5-2.4,4-3.4c1.5-1,3.3-1.6,5.1-2.1
		c0.9-0.2,1.8-0.4,2.8-0.6c0.9-0.1,1.8-0.2,2.7-0.3c1.9-0.2,3.7-0.2,5.6-0.2c1.8,0,3.7,0,5.4-0.2c1.8-0.2,3.4-0.5,5.1-1.1
		c1.6-0.6,3.2-1.4,4.7-2.3c0.8-0.5,1.5-1,2.3-1.5c0.7-0.5,1.4-1,2.1-1.6c1.3-1.1,2.4-2.4,3.1-3.8c0.8-1.4,1.2-3,1.4-4.6
		c0.3-1.6,0.3-3.3,0.4-5c0-1.6-0.1-3.3-0.1-4.9c0-1.7,0.2-3.4,0.7-4.9c0.3-0.8,0.7-1.5,1.2-2.2c0.2-0.3,0.4-0.6,0.7-0.9
		c0.3-0.3,0.5-0.6,0.8-0.9c2.2-2.1,4.8-3.1,7-3.7c2.2-0.6,4.2-0.9,5.8-1.2c1.6-0.2,2.9-0.4,3.8-0.6c0.9-0.2,1.3-0.2,1.3-0.2
		s-1.8,0.6-5,1.4c-1.6,0.4-3.5,0.9-5.6,1.7c-2.1,0.8-4.4,1.9-6.1,3.8c-0.2,0.2-0.4,0.5-0.6,0.7c-0.2,0.3-0.4,0.6-0.6,0.9
		c-0.3,0.5-0.6,1.1-0.8,1.8c-0.4,1.3-0.5,2.8-0.4,4.3c0.1,1.6,0.2,3.2,0.3,4.9c0,1.7,0,3.5-0.2,5.3c-0.2,1.8-0.7,3.7-1.6,5.5
		c-0.9,1.8-2.2,3.4-3.7,4.7c-0.7,0.6-1.5,1.2-2.3,1.8c-0.8,0.6-1.6,1.1-2.4,1.6c-1.6,1-3.4,2-5.3,2.7c-1.9,0.7-3.9,1.1-5.8,1.2
		c-2,0.2-3.9,0.1-5.7,0.1c-1.8,0-3.6,0-5.3,0.1c-0.8,0-1.7,0.1-2.6,0.2c-0.8,0.1-1.6,0.3-2.4,0.4c-3.2,0.8-6,2.3-8.1,4.5
		c-2.1,2.2-3.7,4.7-5,7.1c-1.3,2.4-2.5,4.7-3.7,6.7c-0.6,1-1.2,1.9-1.7,2.7c-0.6,0.8-1.2,1.5-1.6,2.2c-1.1,1.3-2,2.2-2.7,2.7
		C306.7,741,306.4,741.3,306.4,741.3z"/>
	<path fill="#6FFFFC" d="M345,712c0,0,0.1-0.3,0.4-0.9c0.3-0.6,0.5-1.4,0.8-2.5c0.3-1.1,0.5-2.4,0.6-3.9c0.1-1.5-0.1-3.2-0.6-5
		c-0.5-1.8-1.3-3.7-2.3-5.6c-1-1.9-2.3-3.8-3.6-5.9c-1.3-2-2.8-4.1-4.1-6.3c-1.3-2.3-2.6-4.7-3.4-7.3l-0.3-0.9
		c-0.1-0.4-0.2-0.7-0.2-1.1c-0.1-0.7-0.2-1.5-0.1-2.3c0.1-0.8,0.4-1.7,0.9-2.5c0.5-0.7,1-1.3,1.6-1.7c1.1-0.9,2.2-1.6,3.4-2.2
		c1.1-0.6,2.2-1.2,3.2-1.8c1-0.6,2-1.2,2.9-1.8c0.9-0.6,1.5-1.3,1.9-2.1c0.4-0.8,0.7-1.9,1.1-2.9c0.3-1,0.7-2,1-2.9
		c0.3-0.9,0.8-1.9,1.3-2.7c0.5-0.8,1.1-1.5,1.6-2.1c1.1-1.2,2.1-2.1,2.9-2.9c0.8-0.8,1.4-1.4,1.8-1.9c0.4-0.5,0.6-0.7,0.6-0.7
		s-0.2,0.3-0.5,0.8c-0.3,0.5-0.8,1.3-1.5,2.2c-0.7,0.9-1.6,2-2.4,3.3c-0.4,0.6-0.9,1.3-1.2,2.1c-0.4,0.8-0.7,1.5-0.9,2.5
		c-0.2,0.9-0.5,1.9-0.7,2.9c-0.2,1-0.5,2.1-1,3.3c-0.5,1.2-1.5,2.3-2.4,3.1c-1,0.8-2,1.5-3.1,2.2c-1,0.6-2.1,1.3-3.1,2
		c-1,0.7-2.1,1.3-2.9,2c-0.4,0.4-0.8,0.7-1,1.1c-0.2,0.4-0.3,0.7-0.4,1.2c0,0.4,0,1,0.1,1.5c0,0.3,0.1,0.5,0.2,0.8l0.3,0.9
		c0.7,2.3,1.8,4.6,3,6.7c1.2,2.2,2.6,4.3,3.8,6.4c2.5,4.2,4.7,8.4,5.4,12.5c0.4,2,0.3,3.9,0.1,5.5c-0.3,1.6-0.7,3-1.2,4
		c-0.2,0.5-0.5,1-0.7,1.4c-0.2,0.4-0.4,0.7-0.6,1C345.2,711.7,345,712,345,712z"/>
	<path fill="#6FFFFC" d="M356.4,711.3c0,0,0.6,0.1,1.5,0.2c0.5,0.2,1.1,0.3,1.7,0.7c0.3,0.2,0.6,0.4,1,0.6c0.3,0.3,0.6,0.6,0.9,0.9
		c0.3,0.4,0.6,0.7,0.8,1.1c0.2,0.4,0.5,0.9,0.7,1.3c0.4,0.9,0.7,2,0.9,3c0.4,2.1,0.7,4.2,1.1,6.1l0.2,0.7l0.2,0.7
		c0.1,0.5,0.3,0.9,0.5,1.3l0.1,0.2c0,0,0,0.1,0,0.1l0,0.1l0.2,0.4c0.1,0.2,0.2,0.5,0.4,0.7c0.2,0.4,0.5,0.8,0.7,1.2
		c1,1.6,2.1,2.7,3.4,3.4c0.7,0.3,1.3,0.6,1.9,0.9c0.6,0.2,1.2,0.4,1.6,0.6c0.9,0.3,1.4,0.5,1.4,0.5s-0.6,0-1.5,0c-1,0-2.3,0-4.1-0.4
		c-0.9-0.2-1.8-0.6-2.7-1.2c-0.9-0.6-1.7-1.4-2.3-2.3c-0.3-0.4-0.7-0.9-1-1.4c-0.3-0.5-0.5-0.8-0.8-1.4c-0.3-0.5-0.5-1.1-0.7-1.6
		l-0.3-0.8l-0.2-0.8c-0.5-2.3-0.6-4.5-0.8-6.4c-0.1-1-0.2-1.9-0.4-2.7c-0.1-0.4-0.2-0.8-0.3-1.2c-0.1-0.4-0.3-0.7-0.4-1
		c-0.2-0.3-0.4-0.6-0.6-0.9c-0.2-0.3-0.4-0.5-0.6-0.7c-0.2-0.3-0.4-0.4-0.6-0.6c-0.2-0.2-0.4-0.3-0.6-0.5
		C356.8,711.6,356.4,711.3,356.4,711.3z"/>
</g>
<g>
	<path fill="#58595B" d="M1251.5,797.9h-216.2l-73.4,57.4c-8.5,6.7-13.5,16.8-13.5,27.6l0,0h389.9l0,0c0-10.8-5-21-13.5-27.6
		L1251.5,797.9z"/>
	<circle fill="#939598" cx="1143.3" cy="700.1" r="150.4"/>
	<path fill="#E6E7E8" d="M1143.3,549.7c-81.6,0-148.1,65-150.3,146.1c37.4,23.5,93.4,38.5,156,38.5c56.6,0,107.8-12.2,144.7-32
		c0-0.7,0-1.5,0-2.2C1293.8,617,1226.4,549.7,1143.3,549.7z"/>
	<circle fill="#BCBEC0" cx="1143.3" cy="700.1" r="138.2"/>
	<circle fill="#23C44D" cx="1143.3" cy="700.1" r="121.5"/>
	<path fill="#99FBAC" d="M1260.8,668.8c-7.7-28.8-25.6-53.4-49.7-69.6c-45.4,38.7-67.7,100.9-67.7,100.9
		C1181.9,680.7,1223.4,672,1260.8,668.8z"/>
	<path fill="#99FBAC" d="M1149.9,578.7c-29.8-1.6-58.7,7.9-81.6,25.8c22.7,55.2,75,95.6,75,95.6
		C1136.8,657.4,1141.3,615.3,1149.9,578.7z"/>
	<path fill="#99FBAC" d="M1029.9,656.4c-10.7,27.8-10.7,58.3-0.7,85.5c59.5-4.6,114.1-41.8,114.1-41.8
		C1100.7,693.2,1062,675.8,1029.9,656.4z"/>
	<path fill="#99FBAC" d="M1066.7,794.5c23.1,18.8,52.1,28.2,81.1,27.1c14-58-4.5-121.4-4.5-121.4
		C1123.5,738.5,1095.1,769.9,1066.7,794.5z"/>
	<path fill="#99FBAC" d="M1209.4,802.1c25-16.2,42.9-40.9,50.8-68.8c-50.8-31.3-116.9-33.2-116.9-33.2
		C1173.8,730.8,1194.8,767.5,1209.4,802.1z"/>
</g>
</svg>
